SplineFontDB: 3.0
FontName: Z1013
FullName: Z1013
FamilyName: Z1013
Weight: Regular
Copyright: Copyright (c) 2017, MRBOOT.DE
UComments: "2017-10-12: Created with FontForge (http://fontforge.org)"
Version: 001.000
ItalicAngle: 0
UnderlinePosition: -102
UnderlineWidth: 51
Ascent: 819
Descent: 205
InvalidEm: 0
LayerCount: 4
Layer: 0 0 "Back" 1
Layer: 1 0 "Fore" 0
Layer: 2 0 "Back 2" 1
Layer: 3 0 "Back 3" 1
XUID: [1021 847 -735612550 4067877]
StyleMap: 0x0000
FSType: 0
OS2Version: 0
OS2_WeightWidthSlopeOnly: 0
OS2_UseTypoMetrics: 1
CreationTime: 1507790449
ModificationTime: 1508054972
OS2TypoAscent: 0
OS2TypoAOffset: 1
OS2TypoDescent: 0
OS2TypoDOffset: 1
OS2TypoLinegap: 92
OS2WinAscent: 0
OS2WinAOffset: 1
OS2WinDescent: 0
OS2WinDOffset: 1
HheadAscent: 0
HheadAOffset: 1
HheadDescent: 0
HheadDOffset: 1
MarkAttachClasses: 1
DEI: 91125
Encoding: UnicodeBmp
UnicodeInterp: none
NameList: AGL For New Fonts
DisplaySize: -48
AntiAlias: 1
FitToEm: 0
WinInfo: 81 27 16
BeginPrivate: 0
EndPrivate
BeginChars: 65536 309

StartChar: uniF134
Encoding: 61748 61748 27
Width: 1024
VWidth: 0
Flags: HW
LayerCount: 4
Back
Fore
SplineSet
128 819 m 1
 256 819 l 1
 256 691 l 1
 128 691 l 1
 128 819 l 1
0 691 m 1
 128 691 l 1
 128 563 l 1
 0 563 l 1
 0 691 l 1
256 691 m 1
 384 691 l 1
 384 563 l 1
 256 563 l 1
 256 691 l 1
512 563 m 1
 896 563 l 1
 896 435 l 1
 768 435 l 1
 768 -77 l 1
 640 -77 l 1
 640 435 l 1
 512 435 l 1
 512 563 l 1
EndSplineSet
Validated: 5
EndChar

StartChar: uniF135
Encoding: 61749 61749 28
Width: 1024
VWidth: 0
Flags: HW
LayerCount: 4
Back
Fore
SplineSet
128 819 m 1
 256 819 l 1
 256 691 l 1
 128 691 l 1
 128 819 l 1
0 691 m 1
 128 691 l 1
 128 563 l 1
 0 563 l 1
 0 691 l 1
256 691 m 1
 384 691 l 1
 384 563 l 1
 512 563 l 1
 512 51 l 1
 768 51 l 1
 768 563 l 1
 896 563 l 1
 896 51 l 1
 768 51 l 1
 768 -77 l 1
 512 -77 l 1
 512 51 l 1
 384 51 l 1
 384 563 l 1
 256 563 l 1
 256 691 l 1
EndSplineSet
Validated: 5
EndChar

StartChar: uniF1CF
Encoding: 61903 61903 29
Width: 1024
VWidth: 0
Flags: HW
LayerCount: 4
Fore
SplineSet
256 819 m 1
 768 819 l 1
 768 691 l 1
 896 691 l 1
 896 563 l 1
 1024 563 l 1
 1024 51 l 1
 896 51 l 1
 896 -77 l 1
 768 -77 l 1
 768 -205 l 1
 256 -205 l 1
 256 -77 l 1
 128 -77 l 1
 128 51 l 1
 0 51 l 1
 0 563 l 1
 128 563 l 1
 128 691 l 1
 256 691 l 1
 256 819 l 1
EndSplineSet
Validated: 1
EndChar

StartChar: uniF1A8
Encoding: 61864 61864 30
Width: 1024
VWidth: 0
Flags: HW
LayerCount: 4
Fore
SplineSet
384 435 m 1
 1024 435 l 1
 1024 179 l 1
 640 179 l 1
 640 -205 l 1
 384 -205 l 1
 384 435 l 1
EndSplineSet
Validated: 1
EndChar

StartChar: uniF1A0
Encoding: 61856 61856 31
Width: 1024
VWidth: 0
Flags: HW
LayerCount: 4
Fore
SplineSet
0 435 m 1
 1024 435 l 1
 1024 179 l 1
 0 179 l 1
 0 435 l 1
EndSplineSet
Validated: 1
EndChar

StartChar: uniF1A1
Encoding: 61857 61857 32
Width: 1024
VWidth: 0
Flags: HW
LayerCount: 4
Fore
SplineSet
384 819 m 1
 640 819 l 1
 640 -205 l 1
 384 -205 l 1
 384 819 l 1
EndSplineSet
Validated: 1
EndChar

StartChar: uniF1A2
Encoding: 61858 61858 33
Width: 1024
VWidth: 0
Flags: HW
LayerCount: 4
Fore
SplineSet
384 819 m 1
 640 819 l 1
 640 435 l 1
 1024 435 l 1
 1024 179 l 1
 0 179 l 1
 0 435 l 1
 384 435 l 1
 384 819 l 1
EndSplineSet
Validated: 1
EndChar

StartChar: uniF1A3
Encoding: 61859 61859 34
Width: 1024
VWidth: 0
Flags: HW
LayerCount: 4
Fore
SplineSet
384 819 m 1
 640 819 l 1
 640 435 l 1
 1024 435 l 1
 1024 179 l 1
 640 179 l 1
 640 -205 l 1
 384 -205 l 1
 384 819 l 1
EndSplineSet
Validated: 1
EndChar

StartChar: uniF1A4
Encoding: 61860 61860 35
Width: 1024
VWidth: 0
Flags: HW
LayerCount: 4
Fore
SplineSet
0 435 m 1
 1024 435 l 1
 1024 179 l 1
 640 179 l 1
 640 -205 l 1
 384 -205 l 1
 384 179 l 1
 0 179 l 1
 0 435 l 1
EndSplineSet
Validated: 1
EndChar

StartChar: uniF1A5
Encoding: 61861 61861 36
Width: 1024
VWidth: 0
Flags: HW
LayerCount: 4
Fore
SplineSet
384 819 m 1
 640 819 l 1
 640 -205 l 1
 384 -205 l 1
 384 179 l 1
 0 179 l 1
 0 435 l 1
 384 435 l 1
 384 819 l 1
EndSplineSet
Validated: 1
EndChar

StartChar: uniF1A6
Encoding: 61862 61862 37
Width: 1024
VWidth: 0
Flags: HW
LayerCount: 4
Fore
SplineSet
384 819 m 1
 640 819 l 1
 640 435 l 1
 1024 435 l 1
 1024 179 l 1
 640 179 l 1
 640 -205 l 1
 384 -205 l 1
 384 179 l 1
 0 179 l 1
 0 435 l 1
 384 435 l 1
 384 819 l 1
EndSplineSet
Validated: 1
EndChar

StartChar: uniF1A7
Encoding: 61863 61863 38
Width: 1024
VWidth: 0
Flags: HW
LayerCount: 4
Fore
SplineSet
384 819 m 1
 640 819 l 1
 640 435 l 1
 1024 435 l 1
 1024 179 l 1
 384 179 l 1
 384 819 l 1
EndSplineSet
Validated: 1
EndChar

StartChar: uniF1A9
Encoding: 61865 61865 39
Width: 1024
VWidth: 0
Flags: HW
LayerCount: 4
Fore
SplineSet
0 435 m 1
 640 435 l 1
 640 -205 l 1
 384 -205 l 1
 384 179 l 1
 0 179 l 1
 0 435 l 1
EndSplineSet
Validated: 1
EndChar

StartChar: uniF1AA
Encoding: 61866 61866 40
Width: 1024
VWidth: 0
Flags: HW
LayerCount: 4
Fore
SplineSet
384 819 m 1
 640 819 l 1
 640 179 l 1
 0 179 l 1
 0 435 l 1
 384 435 l 1
 384 819 l 1
EndSplineSet
Validated: 1
EndChar

StartChar: uniF1AB
Encoding: 61867 61867 41
Width: 1024
VWidth: 0
Flags: HW
LayerCount: 4
Fore
SplineSet
0 819 m 1
 128 819 l 1
 128 435 l 1
 256 435 l 1
 256 179 l 1
 384 179 l 1
 384 51 l 1
 640 51 l 1
 640 -77 l 1
 1024 -77 l 1
 1024 -205 l 1
 640 -205 l 1
 640 -77 l 1
 384 -77 l 1
 384 51 l 1
 256 51 l 1
 256 179 l 1
 128 179 l 1
 128 435 l 1
 0 435 l 1
 0 819 l 1
EndSplineSet
Validated: 5
EndChar

StartChar: uniF1AC
Encoding: 61868 61868 42
Width: 1024
VWidth: 0
Flags: HW
LayerCount: 4
Fore
SplineSet
1024 820 m 5
 896 820 l 5
 896 436 l 5
 768 436 l 5
 768 180 l 5
 640 180 l 5
 640 52 l 5
 384 52 l 5
 384 -76 l 5
 0 -76 l 5
 0 -204 l 5
 384 -204 l 5
 384 -76 l 5
 640 -76 l 5
 640 52 l 5
 768 52 l 5
 768 180 l 5
 896 180 l 5
 896 436 l 5
 1024 436 l 5
 1024 820 l 5
EndSplineSet
Validated: 5
EndChar

StartChar: uniF1AD
Encoding: 61869 61869 43
Width: 1024
VWidth: 0
Flags: HW
LayerCount: 4
Fore
SplineSet
0 819 m 1
 384 819 l 1
 384 691 l 1
 640 691 l 1
 640 563 l 1
 768 563 l 1
 768 435 l 1
 896 435 l 1
 896 179 l 1
 1024 179 l 1
 1024 -205 l 1
 896 -205 l 1
 896 179 l 1
 768 179 l 1
 768 435 l 1
 640 435 l 1
 640 563 l 1
 384 563 l 1
 384 691 l 1
 0 691 l 1
 0 819 l 1
EndSplineSet
Validated: 5
EndChar

StartChar: uniF1AE
Encoding: 61870 61870 44
Width: 1024
VWidth: 0
Flags: HW
LayerCount: 4
Fore
SplineSet
640 819 m 1
 1024 819 l 1
 1024 691 l 1
 640 691 l 1
 640 819 l 1
384 691 m 1
 640 691 l 1
 640 563 l 1
 384 563 l 1
 384 435 l 1
 256 435 l 1
 256 179 l 1
 128 179 l 1
 128 435 l 1
 256 435 l 1
 256 563 l 1
 384 563 l 1
 384 691 l 1
0 179 m 1
 128 179 l 1
 128 -205 l 1
 0 -205 l 1
 0 179 l 1
EndSplineSet
Validated: 5
EndChar

StartChar: uniF1AF
Encoding: 61871 61871 45
Width: 1024
VWidth: 0
Flags: HW
LayerCount: 4
Fore
SplineSet
0 819 m 1
 128 819 l 1
 128 691 l 1
 256 691 l 1
 256 563 l 1
 384 563 l 1
 384 435 l 1
 640 435 l 1
 640 563 l 1
 768 563 l 1
 768 691 l 1
 896 691 l 1
 896 819 l 1
 1024 819 l 1
 1024 691 l 1
 896 691 l 1
 896 563 l 1
 768 563 l 1
 768 435 l 1
 640 435 l 1
 640 179 l 1
 768 179 l 1
 768 51 l 1
 896 51 l 1
 896 -77 l 1
 1024 -77 l 1
 1024 -205 l 1
 896 -205 l 1
 896 -77 l 1
 768 -77 l 1
 768 51 l 1
 640 51 l 1
 640 179 l 1
 384 179 l 1
 384 51 l 1
 256 51 l 1
 256 -77 l 1
 128 -77 l 1
 128 -205 l 1
 0 -205 l 1
 0 -77 l 1
 128 -77 l 1
 128 51 l 1
 256 51 l 1
 256 179 l 1
 384 179 l 1
 384 435 l 1
 256 435 l 1
 256 563 l 1
 128 563 l 1
 128 691 l 1
 0 691 l 1
 0 819 l 1
EndSplineSet
Validated: 5
EndChar

StartChar: uniF1B0
Encoding: 61872 61872 46
Width: 1024
VWidth: 0
Flags: HW
LayerCount: 4
Fore
SplineSet
0 819 m 1
 512 819 l 1
 512 307 l 1
 0 307 l 1
 0 819 l 1
EndSplineSet
Validated: 1
EndChar

StartChar: uniF1B1
Encoding: 61873 61873 47
Width: 1024
VWidth: 0
Flags: HW
LayerCount: 4
Fore
SplineSet
512 819 m 1
 1024 819 l 1
 1024 307 l 1
 512 307 l 1
 512 819 l 1
EndSplineSet
Validated: 1
EndChar

StartChar: uniF1B2
Encoding: 61874 61874 48
Width: 1024
VWidth: 0
Flags: HW
LayerCount: 4
Fore
SplineSet
512 307 m 1
 1024 307 l 1
 1024 -205 l 1
 512 -205 l 1
 512 307 l 1
EndSplineSet
Validated: 1
EndChar

StartChar: uniF1B3
Encoding: 61875 61875 49
Width: 1024
VWidth: 0
Flags: HW
LayerCount: 4
Fore
SplineSet
0 307 m 1
 512 307 l 1
 512 -205 l 1
 0 -205 l 1
 0 307 l 1
EndSplineSet
Validated: 1
EndChar

StartChar: uniF1B4
Encoding: 61876 61876 50
Width: 1024
VWidth: 0
Flags: HW
LayerCount: 4
Fore
SplineSet
0 819 m 1
 512 819 l 1
 512 -205 l 1
 0 -205 l 1
 0 819 l 1
EndSplineSet
Validated: 1
EndChar

StartChar: uniF1B5
Encoding: 61877 61877 51
Width: 1024
VWidth: 0
Flags: HW
LayerCount: 4
Fore
SplineSet
512 819 m 1
 1024 819 l 1
 1024 -205 l 1
 512 -205 l 1
 512 819 l 1
EndSplineSet
Validated: 1
EndChar

StartChar: uniF1B6
Encoding: 61878 61878 52
Width: 1024
VWidth: 0
Flags: HW
LayerCount: 4
Fore
SplineSet
0 819 m 1
 1024 819 l 1
 1024 307 l 1
 0 307 l 1
 0 819 l 1
EndSplineSet
Validated: 1
EndChar

StartChar: uniF1B7
Encoding: 61879 61879 53
Width: 1024
VWidth: 0
Flags: HW
LayerCount: 4
Fore
SplineSet
0 307 m 1
 1024 307 l 1
 1024 -205 l 1
 0 -205 l 1
 0 307 l 1
EndSplineSet
Validated: 1
EndChar

StartChar: uniF1FF
Encoding: 61951 61951 54
Width: 1024
VWidth: 0
Flags: HW
LayerCount: 4
Fore
SplineSet
0 819 m 1
 1024 819 l 1
 1024 -205 l 1
 0 -205 l 1
 0 819 l 1
EndSplineSet
Validated: 1
EndChar

StartChar: uniF1F4
Encoding: 61940 61940 55
Width: 1024
VWidth: 0
Flags: H
LayerCount: 4
Back
Fore
SplineSet
768 819 m 1
 1024 819 l 1
 1024 -205 l 1
 768 -205 l 1
 768 819 l 1
EndSplineSet
Validated: 1
EndChar

StartChar: uniF1F5
Encoding: 61941 61941 56
Width: 1024
VWidth: 0
Flags: H
LayerCount: 4
Back
Fore
SplineSet
768 563 m 1
 1024 563 l 1
 1024 -205 l 1
 768 -205 l 1
 768 563 l 1
EndSplineSet
Validated: 1
EndChar

StartChar: uniF1F6
Encoding: 61942 61942 57
Width: 1024
VWidth: 0
Flags: H
LayerCount: 4
Back
Fore
SplineSet
768 307 m 1
 1024 307 l 1
 1024 -205 l 1
 768 -205 l 1
 768 307 l 1
EndSplineSet
Validated: 1
EndChar

StartChar: uniF1F7
Encoding: 61943 61943 58
Width: 1024
VWidth: 0
Flags: H
LayerCount: 4
Back
Fore
SplineSet
768 51 m 1
 1024 51 l 1
 1024 -205 l 1
 768 -205 l 1
 768 51 l 1
EndSplineSet
Validated: 1
EndChar

StartChar: uniF1F8
Encoding: 61944 61944 59
Width: 1024
VWidth: 0
Flags: H
LayerCount: 4
Back
Fore
SplineSet
0 -77 m 1
 1024 -77 l 1
 1024 -205 l 1
 0 -205 l 1
 0 -77 l 1
EndSplineSet
Validated: 1
EndChar

StartChar: uniF1F9
Encoding: 61945 61945 60
Width: 1024
VWidth: 0
Flags: H
LayerCount: 4
Back
Fore
SplineSet
0 51 m 1
 1024 51 l 1
 1024 -205 l 1
 0 -205 l 1
 0 51 l 1
EndSplineSet
Validated: 1
EndChar

StartChar: uniF1FA
Encoding: 61946 61946 61
Width: 1024
VWidth: 0
Flags: H
LayerCount: 4
Back
Fore
SplineSet
0 179 m 1
 1024 179 l 1
 1024 -205 l 1
 0 -205 l 1
 0 179 l 1
EndSplineSet
Validated: 1
EndChar

StartChar: uniF1FB
Encoding: 61947 61947 62
Width: 1024
VWidth: 0
Flags: H
LayerCount: 4
Back
Fore
SplineSet
0 307 m 1
 1024 307 l 1
 1024 -205 l 1
 0 -205 l 1
 0 307 l 1
EndSplineSet
Validated: 1
EndChar

StartChar: uniF1FC
Encoding: 61948 61948 63
Width: 1024
VWidth: 0
Flags: H
LayerCount: 4
Back
Fore
SplineSet
0 435 m 1
 1024 435 l 1
 1024 -205 l 1
 0 -205 l 1
 0 435 l 1
EndSplineSet
Validated: 1
EndChar

StartChar: uniF1FD
Encoding: 61949 61949 64
Width: 1024
VWidth: 0
Flags: H
LayerCount: 4
Back
Fore
SplineSet
0 563 m 1
 1024 563 l 1
 1024 -205 l 1
 0 -205 l 1
 0 563 l 1
EndSplineSet
Validated: 1
EndChar

StartChar: uniF1FE
Encoding: 61950 61950 65
Width: 1024
VWidth: 0
Flags: H
LayerCount: 4
Back
Fore
SplineSet
0 691 m 1
 1024 691 l 1
 1024 -205 l 1
 0 -205 l 1
 0 691 l 1
EndSplineSet
Validated: 1
EndChar

StartChar: uniF1C0
Encoding: 61888 61888 66
Width: 1024
VWidth: 0
Flags: H
LayerCount: 4
Back
Fore
SplineSet
896 819 m 1
 1024 819 l 1
 1024 -205 l 1
 896 -205 l 1
 896 819 l 1
EndSplineSet
Validated: 1
EndChar

StartChar: uniF190
Encoding: 61840 61840 67
Width: 1024
VWidth: 0
Flags: H
LayerCount: 4
Back
Fore
SplineSet
896 819 m 1
 1024 819 l 1
 1024 691 l 1
 896 691 l 1
 896 819 l 1
768 691 m 1
 896 691 l 1
 896 563 l 1
 768 563 l 1
 768 435 l 1
 640 435 l 1
 640 307 l 1
 512 307 l 1
 512 179 l 1
 384 179 l 1
 384 51 l 1
 256 51 l 1
 256 -77 l 1
 128 -77 l 1
 128 51 l 1
 256 51 l 1
 256 179 l 1
 384 179 l 1
 384 307 l 1
 512 307 l 1
 512 435 l 1
 640 435 l 1
 640 563 l 1
 768 563 l 1
 768 691 l 1
0 -77 m 1
 128 -77 l 1
 128 -205 l 1
 0 -205 l 1
 0 -77 l 1
EndSplineSet
Validated: 5
EndChar

StartChar: uniF191
Encoding: 61841 61841 68
Width: 1024
VWidth: 0
Flags: H
LayerCount: 4
Back
Fore
SplineSet
0 819 m 1
 128 819 l 1
 128 691 l 1
 256 691 l 1
 256 563 l 1
 384 563 l 1
 384 435 l 1
 512 435 l 1
 512 307 l 1
 640 307 l 1
 640 179 l 1
 768 179 l 1
 768 51 l 1
 896 51 l 1
 896 -77 l 1
 1024 -77 l 1
 1024 -205 l 1
 896 -205 l 1
 896 -77 l 1
 768 -77 l 1
 768 51 l 1
 640 51 l 1
 640 179 l 1
 512 179 l 1
 512 307 l 1
 384 307 l 1
 384 435 l 1
 256 435 l 1
 256 563 l 1
 128 563 l 1
 128 691 l 1
 0 691 l 1
 0 819 l 1
EndSplineSet
Validated: 5
EndChar

StartChar: uniF192
Encoding: 61842 61842 69
Width: 1024
VWidth: 0
Flags: H
LayerCount: 4
Back
Fore
SplineSet
768 307 m 1
 1024 307 l 1
 1024 179 l 1
 768 179 l 1
 768 307 l 1
512 179 m 1
 768 179 l 1
 768 51 l 1
 512 51 l 1
 512 -77 l 1
 256 -77 l 1
 256 51 l 1
 512 51 l 1
 512 179 l 1
0 -77 m 1
 256 -77 l 1
 256 -205 l 1
 0 -205 l 1
 0 -77 l 1
EndSplineSet
Validated: 5
EndChar

StartChar: uniF193
Encoding: 61843 61843 70
Width: 1024
VWidth: 0
Flags: H
LayerCount: 4
Back
Fore
SplineSet
768 819 m 1
 1024 819 l 1
 1024 691 l 1
 768 691 l 1
 768 819 l 1
512 691 m 1
 768 691 l 1
 768 563 l 1
 512 563 l 1
 512 435 l 1
 256 435 l 1
 256 563 l 1
 512 563 l 1
 512 691 l 1
0 435 m 1
 256 435 l 1
 256 307 l 1
 0 307 l 1
 0 435 l 1
EndSplineSet
Validated: 5
EndChar

StartChar: uniF18C
Encoding: 61836 61836 71
Width: 1024
VWidth: 0
Flags: H
LayerCount: 4
Back
Fore
SplineSet
256 819 m 1
 768 819 l 1
 768 691 l 1
 256 691 l 1
 256 819 l 1
128 691 m 1
 256 691 l 1
 256 563 l 1
 128 563 l 1
 128 691 l 1
768 691 m 1
 896 691 l 1
 896 563 l 1
 768 563 l 1
 768 691 l 1
0 563 m 1
 128 563 l 1
 128 51 l 1
 0 51 l 1
 0 563 l 1
896 563 m 1
 1024 563 l 1
 1024 51 l 1
 896 51 l 1
 896 563 l 1
128 51 m 1
 256 51 l 1
 256 -77 l 1
 128 -77 l 1
 128 51 l 1
768 51 m 1
 896 51 l 1
 896 -77 l 1
 768 -77 l 1
 768 51 l 1
256 -77 m 1
 768 -77 l 1
 768 -205 l 1
 256 -205 l 1
 256 -77 l 1
EndSplineSet
Validated: 5
EndChar

StartChar: uniF18D
Encoding: 61837 61837 72
Width: 1024
VWidth: 0
Flags: H
LayerCount: 4
Back
Fore
SplineSet
768 819 m 1
 1024 819 l 1
 1024 563 l 1
 896 563 l 1
 896 691 l 1
 768 691 l 1
 768 819 l 1
0 51 m 1
 128 51 l 1
 128 -77 l 1
 256 -77 l 1
 256 -205 l 1
 0 -205 l 1
 0 51 l 1
896 51 m 1
 1024 51 l 1
 1024 -205 l 1
 768 -205 l 1
 768 -77 l 1
 896 -77 l 1
 896 51 l 1
0 819 m 1
 256 819 l 1
 256 691 l 1
 128 691 l 1
 128 563 l 1
 0 563 l 1
 0 819 l 1
EndSplineSet
Validated: 1
EndChar

StartChar: uniF18E
Encoding: 61838 61838 73
Width: 1024
VWidth: 0
Flags: H
LayerCount: 4
Back
Fore
SplineSet
0 819 m 1
 1024 819 l 1
 1024 691 l 1
 896 691 l 1
 896 563 l 1
 768 563 l 1
 768 435 l 1
 640 435 l 1
 640 307 l 1
 512 307 l 1
 512 179 l 1
 384 179 l 1
 384 51 l 1
 256 51 l 1
 256 -77 l 1
 128 -77 l 1
 128 -205 l 1
 0 -205 l 1
 0 819 l 1
EndSplineSet
Validated: 1
EndChar

StartChar: uniF18F
Encoding: 61839 61839 74
Width: 1024
VWidth: 0
Flags: H
LayerCount: 4
Back
Fore
SplineSet
0 819 m 1
 128 819 l 1
 128 691 l 1
 256 691 l 1
 256 563 l 1
 384 563 l 1
 384 435 l 1
 512 435 l 1
 512 307 l 1
 640 307 l 1
 640 179 l 1
 768 179 l 1
 768 51 l 1
 896 51 l 1
 896 -77 l 1
 1024 -77 l 1
 1024 -205 l 1
 0 -205 l 1
 0 819 l 1
EndSplineSet
Validated: 1
EndChar

StartChar: uniF1C1
Encoding: 61889 61889 75
Width: 1024
VWidth: 0
Flags: H
LayerCount: 4
Back
Fore
SplineSet
0 819 m 1
 1024 819 l 1
 1024 691 l 1
 128 691 l 1
 128 -205 l 1
 0 -205 l 1
 0 819 l 1
EndSplineSet
Validated: 1
EndChar

StartChar: uniF1C2
Encoding: 61890 61890 76
Width: 1024
VWidth: 0
Flags: H
LayerCount: 4
Back
Fore
SplineSet
384 435 m 1
 768 435 l 1
 768 51 l 1
 384 51 l 1
 384 435 l 1
0 819 m 1
 1024 819 l 1
 1024 691 l 1
 128 691 l 1
 128 -205 l 1
 0 -205 l 1
 0 819 l 1
EndSplineSet
Validated: 1
EndChar

StartChar: uniF1C3
Encoding: 61891 61891 77
Width: 1024
VWidth: 0
Flags: H
LayerCount: 4
Back
Fore
SplineSet
384 435 m 1
 384 51 l 1
 768 51 l 1
 768 435 l 1
 384 435 l 1
0 819 m 1
 1024 819 l 1
 1024 -205 l 1
 0 -205 l 1
 0 819 l 1
EndSplineSet
Validated: 1
EndChar

StartChar: uniF1C4
Encoding: 61892 61892 78
Width: 1024
VWidth: 0
Flags: H
LayerCount: 4
Back
Fore
SplineSet
384 819 m 1
 640 819 l 1
 640 691 l 1
 768 691 l 1
 768 563 l 1
 896 563 l 1
 896 435 l 1
 768 435 l 1
 768 307 l 1
 640 307 l 1
 640 179 l 1
 768 179 l 1
 768 51 l 1
 896 51 l 1
 896 -77 l 1
 1024 -77 l 1
 1024 -205 l 1
 0 -205 l 1
 0 -77 l 1
 128 -77 l 1
 128 51 l 1
 256 51 l 1
 256 179 l 1
 384 179 l 1
 384 307 l 1
 256 307 l 1
 256 435 l 1
 128 435 l 1
 128 563 l 1
 256 563 l 1
 256 691 l 1
 384 691 l 1
 384 819 l 1
EndSplineSet
Validated: 1
EndChar

StartChar: uniF1C5
Encoding: 61893 61893 79
Width: 1019
VWidth: 0
Flags: HW
LayerCount: 4
Back
Fore
SplineSet
0 51 m 1
 1024 51 l 1
 1024 -77 l 1
 0 -77 l 1
 0 51 l 1
0 307 m 1
 1024 307 l 1
 1024 179 l 1
 0 179 l 1
 0 307 l 1
0 563 m 1
 1024 563 l 1
 1024 435 l 1
 0 435 l 1
 0 563 l 1
0 819 m 1
 1024 819 l 1
 1024 691 l 1
 0 691 l 1
 0 819 l 1
EndSplineSet
Validated: 1
EndChar

StartChar: uniF1C6
Encoding: 61894 61894 80
Width: 1024
VWidth: 0
Flags: HW
LayerCount: 4
Back
Fore
SplineSet
768 819 m 1
 896 819 l 1
 896 -205 l 1
 768 -205 l 1
 768 819 l 1
512 819 m 1
 640 819 l 1
 640 -205 l 1
 512 -205 l 1
 512 819 l 1
256 819 m 1
 384 819 l 1
 384 -205 l 1
 256 -205 l 1
 256 819 l 1
0 819 m 1
 128 819 l 1
 128 -205 l 1
 0 -205 l 1
 0 819 l 1
EndSplineSet
Validated: 1
EndChar

StartChar: uniF1C7
Encoding: 61895 61895 81
Width: 1024
VWidth: 0
Flags: H
LayerCount: 4
Back
Fore
SplineSet
896 563 m 1
 1024 563 l 1
 1024 435 l 1
 896 435 l 1
 896 563 l 1
0 435 m 1
 128 435 l 1
 128 307 l 1
 0 307 l 1
 0 435 l 1
512 435 m 1
 640 435 l 1
 640 307 l 1
 512 307 l 1
 512 179 l 1
 384 179 l 1
 384 307 l 1
 512 307 l 1
 512 435 l 1
896 307 m 1
 1024 307 l 1
 1024 179 l 1
 896 179 l 1
 896 307 l 1
0 179 m 1
 128 179 l 1
 128 51 l 1
 0 51 l 1
 0 179 l 1
896 51 m 1
 1024 51 l 1
 1024 -77 l 1
 896 -77 l 1
 896 51 l 1
0 -77 m 1
 128 -77 l 1
 128 -205 l 1
 0 -205 l 1
 0 -77 l 1
256 -77 m 1
 384 -77 l 1
 384 -205 l 1
 256 -205 l 1
 256 -77 l 1
512 -77 m 1
 640 -77 l 1
 640 -205 l 1
 512 -205 l 1
 512 -77 l 1
768 -77 m 1
 896 -77 l 1
 896 -205 l 1
 768 -205 l 1
 768 -77 l 1
256 563 m 1
 256 435 l 1
 384 435 l 1
 384 307 l 1
 256 307 l 1
 256 179 l 1
 384 179 l 1
 384 51 l 1
 512 51 l 1
 512 179 l 1
 640 179 l 1
 640 51 l 1
 768 51 l 1
 768 179 l 1
 640 179 l 1
 640 307 l 1
 768 307 l 1
 768 435 l 1
 640 435 l 1
 640 563 l 1
 512 563 l 1
 512 435 l 1
 384 435 l 1
 384 563 l 1
 256 563 l 1
128 819 m 1
 256 819 l 1
 256 691 l 1
 128 691 l 1
 128 819 l 1
384 819 m 1
 512 819 l 1
 512 691 l 1
 384 691 l 1
 384 819 l 1
640 819 m 1
 768 819 l 1
 768 691 l 1
 640 691 l 1
 640 819 l 1
896 819 m 1
 1024 819 l 1
 1024 691 l 1
 896 691 l 1
 896 819 l 1
0 691 m 1
 128 691 l 1
 128 563 l 1
 0 563 l 1
 0 691 l 1
256 691 m 1
 384 691 l 1
 384 563 l 1
 512 563 l 1
 512 691 l 1
 640 691 l 1
 640 563 l 1
 768 563 l 1
 768 691 l 1
 896 691 l 1
 896 563 l 1
 768 563 l 1
 768 435 l 1
 896 435 l 1
 896 307 l 1
 768 307 l 1
 768 179 l 1
 896 179 l 1
 896 51 l 1
 768 51 l 1
 768 -77 l 1
 640 -77 l 1
 640 51 l 1
 512 51 l 1
 512 -77 l 1
 384 -77 l 1
 384 51 l 1
 256 51 l 1
 256 -77 l 1
 128 -77 l 1
 128 51 l 1
 256 51 l 1
 256 179 l 1
 128 179 l 1
 128 307 l 1
 256 307 l 1
 256 435 l 1
 128 435 l 1
 128 563 l 1
 256 563 l 1
 256 691 l 1
EndSplineSet
Validated: 5
EndChar

StartChar: uniF1B8
Encoding: 61880 61880 82
Width: 1024
VWidth: 0
Flags: H
LayerCount: 4
Back
Fore
SplineSet
0 819 m 1
 512 819 l 1
 512 307 l 1
 1024 307 l 1
 1024 -205 l 1
 512 -205 l 1
 512 307 l 1
 0 307 l 1
 0 819 l 1
EndSplineSet
Validated: 5
EndChar

StartChar: uniF1BD
Encoding: 61885 61885 83
Width: 1024
VWidth: 0
Flags: H
LayerCount: 4
Back
Fore
SplineSet
0 819 m 1
 1024 819 l 1
 1024 -205 l 1
 512 -205 l 1
 512 307 l 1
 0 307 l 1
 0 819 l 1
EndSplineSet
Validated: 1
EndChar

StartChar: uniF1B9
Encoding: 61881 61881 84
Width: 1024
VWidth: 0
Flags: H
LayerCount: 4
Back
Fore
SplineSet
512 819 m 1
 1024 819 l 1
 1024 307 l 1
 512 307 l 1
 512 819 l 1
0 307 m 1
 512 307 l 1
 512 -205 l 1
 0 -205 l 1
 0 307 l 1
EndSplineSet
Validated: 5
EndChar

StartChar: uniF1BA
Encoding: 61882 61882 85
Width: 1024
VWidth: 0
Flags: H
LayerCount: 4
Back
Fore
SplineSet
512 819 m 1
 1024 819 l 1
 1024 -205 l 1
 0 -205 l 1
 0 307 l 1
 512 307 l 1
 512 819 l 1
EndSplineSet
Validated: 1
EndChar

StartChar: uniF1BB
Encoding: 61883 61883 86
Width: 1024
VWidth: 0
Flags: H
LayerCount: 4
Back
Fore
SplineSet
0 819 m 1
 512 819 l 1
 512 307 l 1
 1024 307 l 1
 1024 -205 l 1
 0 -205 l 1
 0 819 l 1
EndSplineSet
Validated: 1
EndChar

StartChar: uniF1BC
Encoding: 61884 61884 87
Width: 1024
VWidth: 0
Flags: H
LayerCount: 4
Back
Fore
SplineSet
0 819 m 1
 1024 819 l 1
 1024 307 l 1
 512 307 l 1
 512 -205 l 1
 0 -205 l 1
 0 819 l 1
EndSplineSet
Validated: 1
EndChar

StartChar: uniF1BE
Encoding: 61886 61886 88
Width: 1024
VWidth: 0
Flags: H
LayerCount: 4
Back
Fore
SplineSet
896 819 m 1
 1024 819 l 1
 1024 -205 l 1
 0 -205 l 1
 0 -77 l 1
 128 -77 l 1
 128 51 l 1
 256 51 l 1
 256 179 l 1
 384 179 l 1
 384 307 l 1
 512 307 l 1
 512 435 l 1
 640 435 l 1
 640 563 l 1
 768 563 l 1
 768 691 l 1
 896 691 l 1
 896 819 l 1
EndSplineSet
Validated: 1
EndChar

StartChar: uniF1BF
Encoding: 61887 61887 89
Width: 1024
VWidth: 0
Flags: H
LayerCount: 4
Back
Fore
SplineSet
0 819 m 1
 1024 819 l 1
 1024 -205 l 1
 896 -205 l 1
 896 -77 l 1
 768 -77 l 1
 768 51 l 1
 640 51 l 1
 640 179 l 1
 512 179 l 1
 512 307 l 1
 384 307 l 1
 384 435 l 1
 256 435 l 1
 256 563 l 1
 128 563 l 1
 128 691 l 1
 0 691 l 1
 0 819 l 1
EndSplineSet
Validated: 1
EndChar

StartChar: uniF194
Encoding: 61844 61844 90
Width: 1024
VWidth: 0
Flags: H
LayerCount: 4
Back
Fore
SplineSet
768 819 m 1
 1024 819 l 1
 1024 691 l 1
 768 691 l 1
 768 819 l 1
512 691 m 1
 768 691 l 1
 768 563 l 1
 512 563 l 1
 512 435 l 1
 256 435 l 1
 256 563 l 1
 512 563 l 1
 512 691 l 1
0 435 m 1
 256 435 l 1
 256 179 l 1
 0 179 l 1
 0 435 l 1
256 179 m 1
 512 179 l 1
 512 51 l 1
 768 51 l 1
 768 -77 l 1
 512 -77 l 1
 512 51 l 1
 256 51 l 1
 256 179 l 1
768 -77 m 1
 1024 -77 l 1
 1024 -205 l 1
 768 -205 l 1
 768 -77 l 1
EndSplineSet
Validated: 5
EndChar

StartChar: uniF195
Encoding: 61845 61845 91
Width: 1015
VWidth: 0
Flags: HW
LayerCount: 4
Back
Fore
SplineSet
0 307 m 1
 256 307 l 1
 256 179 l 1
 0 179 l 1
 0 307 l 1
256 179 m 1
 512 179 l 1
 512 51 l 1
 768 51 l 1
 768 -77 l 1
 512 -77 l 1
 512 51 l 1
 256 51 l 1
 256 179 l 1
768 -77 m 1
 1024 -77 l 1
 1024 -205 l 1
 768 -205 l 1
 768 -77 l 1
EndSplineSet
Validated: 5
EndChar

StartChar: uniF196
Encoding: 61846 61846 92
Width: 1024
VWidth: 0
Flags: H
LayerCount: 4
Back
Fore
SplineSet
0 819 m 1
 256 819 l 1
 256 691 l 1
 512 691 l 1
 512 563 l 1
 768 563 l 1
 768 435 l 1
 1024 435 l 1
 1024 307 l 1
 768 307 l 1
 768 435 l 1
 512 435 l 1
 512 563 l 1
 256 563 l 1
 256 691 l 1
 0 691 l 1
 0 819 l 1
EndSplineSet
Validated: 5
EndChar

StartChar: uniF197
Encoding: 61847 61847 93
Width: 1024
VWidth: 0
Flags: H
LayerCount: 4
Back
Fore
SplineSet
0 819 m 1
 256 819 l 1
 256 691 l 1
 512 691 l 1
 512 563 l 1
 768 563 l 1
 768 435 l 1
 1024 435 l 1
 1024 179 l 1
 768 179 l 1
 768 51 l 1
 512 51 l 1
 512 -77 l 1
 256 -77 l 1
 256 -205 l 1
 0 -205 l 1
 0 -77 l 1
 256 -77 l 1
 256 51 l 1
 512 51 l 1
 512 179 l 1
 768 179 l 1
 768 435 l 1
 512 435 l 1
 512 563 l 1
 256 563 l 1
 256 691 l 1
 0 691 l 1
 0 819 l 1
EndSplineSet
Validated: 5
EndChar

StartChar: uniF198
Encoding: 61848 61848 94
Width: 1024
VWidth: 0
Flags: H
LayerCount: 4
Back
Fore
SplineSet
384 819 m 1
 512 819 l 1
 512 563 l 1
 384 563 l 1
 384 819 l 1
256 563 m 1
 384 563 l 1
 384 307 l 1
 256 307 l 1
 256 51 l 1
 128 51 l 1
 128 307 l 1
 256 307 l 1
 256 563 l 1
0 51 m 1
 128 51 l 1
 128 -205 l 1
 0 -205 l 1
 0 51 l 1
EndSplineSet
Validated: 5
EndChar

StartChar: uniF199
Encoding: 61849 61849 95
Width: 1024
VWidth: 0
Flags: H
LayerCount: 4
Back
Fore
SplineSet
896 819 m 1
 1024 819 l 1
 1024 563 l 1
 896 563 l 1
 896 819 l 1
768 563 m 1
 896 563 l 1
 896 307 l 1
 768 307 l 1
 768 51 l 1
 640 51 l 1
 640 307 l 1
 768 307 l 1
 768 563 l 1
512 51 m 1
 640 51 l 1
 640 -205 l 1
 512 -205 l 1
 512 51 l 1
EndSplineSet
Validated: 5
EndChar

StartChar: uniF19A
Encoding: 61850 61850 96
Width: 1024
VWidth: 0
Flags: H
LayerCount: 4
Back
Fore
SplineSet
0 819 m 1
 128 819 l 1
 128 563 l 1
 256 563 l 1
 256 307 l 1
 384 307 l 1
 384 51 l 1
 640 51 l 1
 640 307 l 1
 768 307 l 1
 768 563 l 1
 896 563 l 1
 896 819 l 1
 1024 819 l 1
 1024 563 l 1
 896 563 l 1
 896 307 l 1
 768 307 l 1
 768 51 l 1
 640 51 l 1
 640 -205 l 1
 384 -205 l 1
 384 51 l 1
 256 51 l 1
 256 307 l 1
 128 307 l 1
 128 563 l 1
 0 563 l 1
 0 819 l 1
EndSplineSet
Validated: 5
EndChar

StartChar: uniF19B
Encoding: 61851 61851 97
Width: 1024
VWidth: 0
Flags: H
LayerCount: 4
Back
Fore
SplineSet
0 819 m 1
 128 819 l 1
 128 563 l 1
 256 563 l 1
 256 307 l 1
 384 307 l 1
 384 51 l 1
 512 51 l 1
 512 -205 l 1
 384 -205 l 1
 384 51 l 1
 256 51 l 1
 256 307 l 1
 128 307 l 1
 128 563 l 1
 0 563 l 1
 0 819 l 1
EndSplineSet
Validated: 5
EndChar

StartChar: uniF19C
Encoding: 61852 61852 98
Width: 1024
VWidth: 0
Flags: H
LayerCount: 4
Back
Fore
SplineSet
512 819 m 1
 640 819 l 1
 640 563 l 1
 512 563 l 1
 512 819 l 1
640 563 m 1
 768 563 l 1
 768 307 l 1
 896 307 l 1
 896 51 l 1
 768 51 l 1
 768 307 l 1
 640 307 l 1
 640 563 l 1
896 51 m 1
 1024 51 l 1
 1024 -205 l 1
 896 -205 l 1
 896 51 l 1
EndSplineSet
Validated: 5
EndChar

StartChar: uniF19D
Encoding: 61853 61853 99
Width: 1024
VWidth: 0
Flags: H
LayerCount: 4
Back
Fore
SplineSet
384 819 m 1
 640 819 l 1
 640 563 l 1
 384 563 l 1
 384 819 l 1
256 563 m 1
 384 563 l 1
 384 307 l 1
 256 307 l 1
 256 51 l 1
 128 51 l 1
 128 307 l 1
 256 307 l 1
 256 563 l 1
640 563 m 1
 768 563 l 1
 768 307 l 1
 896 307 l 1
 896 51 l 1
 768 51 l 1
 768 307 l 1
 640 307 l 1
 640 563 l 1
0 51 m 1
 128 51 l 1
 128 -205 l 1
 0 -205 l 1
 0 51 l 1
896 51 m 1
 1024 51 l 1
 1024 -205 l 1
 896 -205 l 1
 896 51 l 1
EndSplineSet
Validated: 5
EndChar

StartChar: uniF19E
Encoding: 61854 61854 100
Width: 1024
VWidth: 0
Flags: H
LayerCount: 4
Back
Fore
SplineSet
0 819 m 1
 1024 819 l 1
 1024 691 l 1
 0 691 l 1
 0 819 l 1
EndSplineSet
Validated: 1
EndChar

StartChar: uniF19F
Encoding: 61855 61855 101
Width: 1024
VWidth: 0
Flags: H
LayerCount: 4
Back
Fore
SplineSet
0 819 m 1
 128 819 l 1
 128 -205 l 1
 0 -205 l 1
 0 819 l 1
EndSplineSet
Validated: 1
EndChar

StartChar: uniF188
Encoding: 61832 61832 102
Width: 1024
VWidth: 0
Flags: H
LayerCount: 4
Back
Fore
SplineSet
0 819 m 1
 128 819 l 1
 128 -77 l 1
 1024 -77 l 1
 1024 -205 l 1
 0 -205 l 1
 0 819 l 1
EndSplineSet
Validated: 1
EndChar

StartChar: uniF189
Encoding: 61833 61833 103
Width: 1024
VWidth: 0
Flags: H
LayerCount: 4
Back
Fore
SplineSet
0 819 m 1
 1024 819 l 1
 1024 -205 l 1
 896 -205 l 1
 896 691 l 1
 0 691 l 1
 0 819 l 1
EndSplineSet
Validated: 1
EndChar

StartChar: uniF18A
Encoding: 61834 61834 104
Width: 1024
VWidth: 0
Flags: H
LayerCount: 4
Back
Fore
SplineSet
384 691 m 1
 512 691 l 1
 512 563 l 1
 640 563 l 1
 640 435 l 1
 768 435 l 1
 768 307 l 1
 896 307 l 1
 896 179 l 1
 768 179 l 1
 768 51 l 1
 640 51 l 1
 640 -77 l 1
 512 -77 l 1
 512 51 l 1
 640 51 l 1
 640 179 l 1
 768 179 l 1
 768 307 l 1
 640 307 l 1
 640 435 l 1
 512 435 l 1
 512 563 l 1
 384 563 l 1
 384 435 l 1
 256 435 l 1
 256 307 l 1
 128 307 l 1
 128 435 l 1
 256 435 l 1
 256 563 l 1
 384 563 l 1
 384 691 l 1
0 307 m 1
 128 307 l 1
 128 179 l 1
 0 179 l 1
 0 307 l 1
128 179 m 1
 256 179 l 1
 256 51 l 1
 384 51 l 1
 384 -77 l 1
 256 -77 l 1
 256 51 l 1
 128 51 l 1
 128 179 l 1
384 -77 m 1
 512 -77 l 1
 512 -205 l 1
 384 -205 l 1
 384 -77 l 1
EndSplineSet
Validated: 5
EndChar

StartChar: uniF18B
Encoding: 61835 61835 105
Width: 1024
VWidth: 0
Flags: H
LayerCount: 4
Back
Fore
SplineSet
0 179 m 1
 128 179 l 1
 128 51 l 1
 256 51 l 1
 256 -77 l 1
 384 -77 l 1
 384 -205 l 1
 0 -205 l 1
 0 179 l 1
0 819 m 1
 1024 819 l 1
 1024 -205 l 1
 512 -205 l 1
 512 -77 l 1
 640 -77 l 1
 640 51 l 1
 768 51 l 1
 768 179 l 1
 896 179 l 1
 896 307 l 1
 768 307 l 1
 768 435 l 1
 640 435 l 1
 640 563 l 1
 512 563 l 1
 512 691 l 1
 384 691 l 1
 384 563 l 1
 256 563 l 1
 256 435 l 1
 128 435 l 1
 128 307 l 1
 0 307 l 1
 0 819 l 1
EndSplineSet
Validated: 1
EndChar

StartChar: uniF1C8
Encoding: 61896 61896 106
Width: 1024
VWidth: 0
Flags: H
LayerCount: 4
Back
Fore
SplineSet
896 819 m 1
 1024 819 l 1
 1024 -205 l 1
 0 -205 l 1
 0 -77 l 1
 896 -77 l 1
 896 819 l 1
EndSplineSet
Validated: 1
EndChar

StartChar: uniF1E0
Encoding: 61920 61920 107
Width: 1024
VWidth: 0
Flags: H
LayerCount: 4
Back
Fore
SplineSet
512 51 m 1
 1024 51 l 1
 1024 -205 l 1
 512 -205 l 1
 512 51 l 1
EndSplineSet
Validated: 1
EndChar

StartChar: uniF1E1
Encoding: 61921 61921 108
Width: 1024
VWidth: 0
Flags: H
LayerCount: 4
Back
Fore
SplineSet
256 51 m 1
 1024 51 l 1
 1024 -205 l 1
 256 -205 l 1
 256 51 l 1
EndSplineSet
Validated: 1
EndChar

StartChar: uniF1E2
Encoding: 61922 61922 109
Width: 1024
VWidth: 0
Flags: H
LayerCount: 4
Back
Fore
SplineSet
0 51 m 1
 1024 51 l 1
 1024 -205 l 1
 0 -205 l 1
 0 51 l 1
EndSplineSet
Validated: 1
EndChar

StartChar: uniF1E3
Encoding: 61923 61923 110
Width: 1024
VWidth: 0
Flags: H
LayerCount: 4
Back
Fore
SplineSet
0 51 m 1
 768 51 l 1
 768 -205 l 1
 0 -205 l 1
 0 51 l 1
EndSplineSet
Validated: 1
EndChar

StartChar: uniF1E4
Encoding: 61924 61924 111
Width: 1024
VWidth: 0
Flags: H
LayerCount: 4
Back
Fore
SplineSet
0 51 m 1
 512 51 l 1
 512 -205 l 1
 0 -205 l 1
 0 51 l 1
EndSplineSet
Validated: 1
EndChar

StartChar: uniF1E5
Encoding: 61925 61925 112
Width: 1024
VWidth: 0
Flags: H
LayerCount: 4
Back
Fore
SplineSet
0 51 m 1
 256 51 l 1
 256 -205 l 1
 0 -205 l 1
 0 51 l 1
EndSplineSet
Validated: 1
EndChar

StartChar: uniF1E6
Encoding: 61926 61926 113
Width: 1024
VWidth: 0
Flags: H
LayerCount: 4
Back
Fore
SplineSet
0 307 m 1
 256 307 l 1
 256 -205 l 1
 0 -205 l 1
 0 307 l 1
EndSplineSet
Validated: 1
EndChar

StartChar: uniF1E7
Encoding: 61927 61927 114
Width: 1024
VWidth: 0
Flags: H
LayerCount: 4
Back
Fore
SplineSet
0 563 m 1
 256 563 l 1
 256 -205 l 1
 0 -205 l 1
 0 563 l 1
EndSplineSet
Validated: 1
EndChar

StartChar: uniF1E8
Encoding: 61928 61928 115
Width: 1024
VWidth: 0
Flags: H
LayerCount: 4
Back
Fore
SplineSet
0 819 m 1
 256 819 l 1
 256 -205 l 1
 0 -205 l 1
 0 819 l 1
EndSplineSet
Validated: 1
EndChar

StartChar: uniF1E9
Encoding: 61929 61929 116
Width: 1024
VWidth: 0
Flags: H
LayerCount: 4
Back
Fore
SplineSet
0 819 m 1
 256 819 l 1
 256 51 l 1
 0 51 l 1
 0 819 l 1
EndSplineSet
Validated: 1
EndChar

StartChar: uniF1EA
Encoding: 61930 61930 117
Width: 1024
VWidth: 0
Flags: H
LayerCount: 4
Back
Fore
SplineSet
0 819 m 1
 256 819 l 1
 256 307 l 1
 0 307 l 1
 0 819 l 1
EndSplineSet
Validated: 1
EndChar

StartChar: uniF1EB
Encoding: 61931 61931 118
Width: 1024
VWidth: 0
Flags: H
LayerCount: 4
Back
Fore
SplineSet
0 819 m 1
 256 819 l 1
 256 563 l 1
 0 563 l 1
 0 819 l 1
EndSplineSet
Validated: 1
EndChar

StartChar: uniF1EC
Encoding: 61932 61932 119
Width: 1024
VWidth: 0
Flags: H
LayerCount: 4
Back
Fore
SplineSet
0 819 m 1
 512 819 l 1
 512 563 l 1
 0 563 l 1
 0 819 l 1
EndSplineSet
Validated: 1
EndChar

StartChar: uniF1ED
Encoding: 61933 61933 120
Width: 1024
VWidth: 0
Flags: H
LayerCount: 4
Back
Fore
SplineSet
0 563 m 1
 0 819 l 1025
0 819 m 1
 768 819 l 1
 768 563 l 1
 0 563 l 1
 0 819 l 1
EndSplineSet
Validated: 3
EndChar

StartChar: uniF1EE
Encoding: 61934 61934 121
Width: 1024
VWidth: 0
Flags: HW
LayerCount: 4
Back
Fore
SplineSet
0 819 m 1
 1024 819 l 1
 1024 563 l 1
 0 563 l 1
 0 819 l 1
EndSplineSet
Validated: 1
EndChar

StartChar: uniF1EF
Encoding: 61935 61935 122
Width: 1024
VWidth: 0
Flags: HW
LayerCount: 4
Fore
SplineSet
256 819 m 1
 1024 819 l 1
 1024 563 l 1
 256 563 l 1
 256 819 l 1
EndSplineSet
Validated: 1
EndChar

StartChar: uniF1C9
Encoding: 61897 61897 123
Width: 1024
VWidth: 0
Flags: H
LayerCount: 4
Back
Fore
SplineSet
384 691 m 1
 512 691 l 1
 512 563 l 1
 640 563 l 1
 640 435 l 1
 768 435 l 1
 768 307 l 1
 896 307 l 1
 896 179 l 1
 768 179 l 1
 768 51 l 1
 640 51 l 1
 640 -77 l 1
 512 -77 l 1
 512 -205 l 1
 384 -205 l 1
 384 -77 l 1
 256 -77 l 1
 256 51 l 1
 128 51 l 1
 128 179 l 1
 0 179 l 1
 0 307 l 1
 128 307 l 1
 128 435 l 1
 256 435 l 1
 256 563 l 1
 384 563 l 1
 384 691 l 1
EndSplineSet
Validated: 1
EndChar

StartChar: uniF1CA
Encoding: 61898 61898 124
Width: 1024
VWidth: 0
Flags: H
LayerCount: 4
Back
Fore
SplineSet
256 819 m 1
 640 819 l 1
 640 691 l 1
 512 691 l 1
 512 435 l 1
 768 435 l 1
 768 563 l 1
 896 563 l 1
 896 179 l 1
 768 179 l 1
 768 307 l 1
 512 307 l 1
 512 51 l 1
 640 51 l 1
 640 -77 l 1
 768 -77 l 1
 768 -205 l 1
 128 -205 l 1
 128 -77 l 1
 256 -77 l 1
 256 51 l 1
 384 51 l 1
 384 307 l 1
 128 307 l 1
 128 179 l 1
 0 179 l 1
 0 563 l 1
 128 563 l 1
 128 435 l 1
 384 435 l 1
 384 691 l 1
 256 691 l 1
 256 819 l 1
EndSplineSet
Validated: 1
EndChar

StartChar: uniF1CB
Encoding: 61899 61899 125
Width: 1024
VWidth: 0
Flags: H
LayerCount: 4
Back
Fore
SplineSet
128 691 m 1
 384 691 l 1
 384 563 l 1
 512 563 l 1
 512 691 l 1
 768 691 l 1
 768 563 l 1
 896 563 l 1
 896 179 l 1
 768 179 l 1
 768 51 l 1
 640 51 l 1
 640 -77 l 1
 512 -77 l 1
 512 -205 l 1
 384 -205 l 1
 384 -77 l 1
 256 -77 l 1
 256 51 l 1
 128 51 l 1
 128 179 l 1
 0 179 l 1
 0 563 l 1
 128 563 l 1
 128 691 l 1
EndSplineSet
Validated: 1
EndChar

StartChar: uniF1CC
Encoding: 61900 61900 126
Width: 1024
VWidth: 0
Flags: H
LayerCount: 4
Back
Fore
SplineSet
384 819 m 1
 512 819 l 1
 512 691 l 1
 640 691 l 1
 640 563 l 1
 768 563 l 1
 768 435 l 1
 896 435 l 1
 896 179 l 1
 768 179 l 1
 768 51 l 1
 512 51 l 1
 512 -77 l 1
 768 -77 l 1
 768 -205 l 1
 128 -205 l 1
 128 -77 l 1
 384 -77 l 1
 384 51 l 1
 128 51 l 1
 128 179 l 1
 0 179 l 1
 0 435 l 1
 128 435 l 1
 128 563 l 1
 256 563 l 1
 256 691 l 1
 384 691 l 1
 384 819 l 1
EndSplineSet
Validated: 1
EndChar

StartChar: uniF1CD
Encoding: 61901 61901 127
Width: 1024
VWidth: 0
Flags: H
LayerCount: 4
Back
Fore
SplineSet
0 819 m 1
 384 819 l 1
 384 563 l 1
 256 563 l 1
 256 435 l 1
 768 435 l 1
 768 563 l 1
 640 563 l 1
 640 819 l 1
 1024 819 l 1
 1024 563 l 1
 896 563 l 1
 896 435 l 1
 1024 435 l 1
 1024 179 l 1
 896 179 l 1
 896 51 l 1
 1024 51 l 1
 1024 -205 l 1
 640 -205 l 1
 640 51 l 1
 768 51 l 1
 768 179 l 1
 256 179 l 1
 256 51 l 1
 384 51 l 1
 384 -205 l 1
 0 -205 l 1
 0 51 l 1
 128 51 l 1
 128 179 l 1
 0 179 l 1
 0 435 l 1
 128 435 l 1
 128 563 l 1
 0 563 l 1
 0 819 l 1
EndSplineSet
Validated: 1
EndChar

StartChar: uniF1CE
Encoding: 61902 61902 128
Width: 1024
VWidth: 0
Flags: HW
LayerCount: 4
Back
Fore
SplineSet
0 819 m 1
 256 819 l 1
 256 691 l 1
 384 691 l 1
 384 819 l 1
 640 819 l 1
 640 691 l 1
 768 691 l 1
 768 819 l 1
 1024 819 l 1
 1024 435 l 1
 768 435 l 1
 768 563 l 1
 640 563 l 1
 640 51 l 1
 768 51 l 1
 768 179 l 1
 1024 179 l 1
 1024 -205 l 1
 768 -205 l 1
 768 -77 l 1
 640 -77 l 1
 640 -205 l 1
 384 -205 l 1
 384 -77 l 1
 256 -77 l 1
 256 -205 l 1
 0 -205 l 1
 0 179 l 1
 256 179 l 1
 256 51 l 1
 384 51 l 1
 384 563 l 1
 256 563 l 1
 256 435 l 1
 0 435 l 1
 0 819 l 1
EndSplineSet
Validated: 1
EndChar

StartChar: uniF1D0
Encoding: 61904 61904 129
Width: 1024
VWidth: 0
Flags: H
LayerCount: 4
Back
Fore
SplineSet
0 819 m 1
 256 819 l 1
 256 563 l 1
 0 563 l 1
 0 819 l 1
EndSplineSet
Validated: 1
EndChar

StartChar: uniF1D1
Encoding: 61905 61905 130
Width: 1024
VWidth: 0
Flags: H
LayerCount: 4
Back
Fore
SplineSet
256 819 m 1
 512 819 l 1
 512 563 l 1
 256 563 l 1
 256 819 l 1
EndSplineSet
Validated: 1
EndChar

StartChar: uniF1D2
Encoding: 61906 61906 131
Width: 1024
VWidth: 0
Flags: H
LayerCount: 4
Back
Fore
SplineSet
512 819 m 1
 768 819 l 1
 768 563 l 1
 512 563 l 1
 512 819 l 1
EndSplineSet
Validated: 1
EndChar

StartChar: uniF1D3
Encoding: 61907 61907 132
Width: 1024
VWidth: 0
Flags: H
LayerCount: 4
Back
Fore
SplineSet
768 819 m 1
 1024 819 l 1
 1024 563 l 1
 768 563 l 1
 768 819 l 1
EndSplineSet
Validated: 1
EndChar

StartChar: uniF1D4
Encoding: 61908 61908 133
Width: 1024
VWidth: 0
Flags: H
LayerCount: 4
Back
Fore
SplineSet
0 563 m 1
 256 563 l 1
 256 307 l 1
 0 307 l 1
 0 563 l 1
EndSplineSet
Validated: 1
EndChar

StartChar: uniF1D5
Encoding: 61909 61909 134
Width: 1024
VWidth: 0
Flags: H
LayerCount: 4
Back
Fore
SplineSet
256 563 m 1
 512 563 l 1
 512 307 l 1
 256 307 l 1
 256 563 l 1
EndSplineSet
Validated: 1
EndChar

StartChar: uniF1F0
Encoding: 61936 61936 135
Width: 1024
VWidth: 0
Flags: H
LayerCount: 4
Back
Fore
SplineSet
512 819 m 1
 1024 819 l 1
 1024 563 l 1
 512 563 l 1
 512 819 l 1
EndSplineSet
Validated: 1
EndChar

StartChar: uniF181
Encoding: 61825 61825 136
Width: 1024
VWidth: 0
Flags: H
LayerCount: 4
Back
Fore
SplineSet
768 819 m 1
 1024 819 l 1
 1024 691 l 1
 768 691 l 1
 768 819 l 1
640 691 m 1
 768 691 l 1
 768 563 l 1
 640 563 l 1
 640 51 l 1
 768 51 l 1
 768 -77 l 1
 640 -77 l 1
 640 51 l 1
 512 51 l 1
 512 563 l 1
 640 563 l 1
 640 691 l 1
768 -77 m 1
 1024 -77 l 1
 1024 -205 l 1
 768 -205 l 1
 768 -77 l 1
EndSplineSet
Validated: 5
EndChar

StartChar: uniF182
Encoding: 61826 61826 137
Width: 1024
VWidth: 0
Flags: H
LayerCount: 4
Back
Fore
SplineSet
0 819 m 1
 128 819 l 1
 128 563 l 1
 256 563 l 1
 256 435 l 1
 768 435 l 1
 768 563 l 1
 896 563 l 1
 896 819 l 1
 1024 819 l 1
 1024 563 l 1
 896 563 l 1
 896 435 l 1
 768 435 l 1
 768 307 l 1
 256 307 l 1
 256 435 l 1
 128 435 l 1
 128 563 l 1
 0 563 l 1
 0 819 l 1
EndSplineSet
Validated: 5
EndChar

StartChar: uniF183
Encoding: 61827 61827 138
Width: 1024
VWidth: 0
Flags: H
LayerCount: 4
Back
Fore
SplineSet
256 307 m 1
 768 307 l 1
 768 179 l 1
 896 179 l 1
 896 51 l 1
 768 51 l 1
 768 179 l 1
 256 179 l 1
 256 51 l 1
 128 51 l 1
 128 179 l 1
 256 179 l 1
 256 307 l 1
0 51 m 1
 128 51 l 1
 128 -205 l 1
 0 -205 l 1
 0 51 l 1
896 51 m 1
 1024 51 l 1
 1024 -205 l 1
 896 -205 l 1
 896 51 l 1
EndSplineSet
Validated: 5
EndChar

StartChar: uniF184
Encoding: 61828 61828 139
Width: 1024
VWidth: 0
Flags: H
LayerCount: 4
Back
Fore
SplineSet
384 819 m 1
 512 819 l 1
 512 563 l 1
 384 563 l 1
 384 819 l 1
256 563 m 1
 384 563 l 1
 384 435 l 1
 256 435 l 1
 256 563 l 1
0 435 m 1
 256 435 l 1
 256 307 l 1
 0 307 l 1
 0 435 l 1
EndSplineSet
Validated: 5
EndChar

StartChar: uniF180
Encoding: 61824 61824 140
Width: 1024
VWidth: 0
Flags: H
LayerCount: 4
Back
Fore
SplineSet
0 819 m 1
 256 819 l 1
 256 691 l 1
 384 691 l 1
 384 563 l 1
 512 563 l 1
 512 51 l 1
 384 51 l 1
 384 -77 l 1
 256 -77 l 1
 256 -205 l 1
 0 -205 l 1
 0 -77 l 1
 256 -77 l 1
 256 51 l 1
 384 51 l 1
 384 563 l 1
 256 563 l 1
 256 691 l 1
 0 691 l 1
 0 819 l 1
EndSplineSet
Validated: 5
EndChar

StartChar: uniF1D6
Encoding: 61910 61910 141
Width: 1024
VWidth: 0
Flags: H
LayerCount: 4
Back
Fore
SplineSet
512 563 m 1
 768 563 l 1
 768 307 l 1
 512 307 l 1
 512 563 l 1
EndSplineSet
Validated: 1
EndChar

StartChar: uniF1D7
Encoding: 61911 61911 142
Width: 1024
VWidth: 0
Flags: H
LayerCount: 4
Back
Fore
SplineSet
768 563 m 1
 1024 563 l 1
 1024 307 l 1
 768 307 l 1
 768 563 l 1
EndSplineSet
Validated: 1
EndChar

StartChar: uniF1D8
Encoding: 61912 61912 143
Width: 1024
VWidth: 0
Flags: H
LayerCount: 4
Back
Fore
SplineSet
0 307 m 1
 256 307 l 1
 256 51 l 1
 0 51 l 1
 0 307 l 1
EndSplineSet
Validated: 1
EndChar

StartChar: uniF1D9
Encoding: 61913 61913 144
Width: 1024
VWidth: 0
Flags: H
LayerCount: 4
Back
Fore
SplineSet
256 307 m 1
 512 307 l 1
 512 51 l 1
 256 51 l 1
 256 307 l 1
EndSplineSet
Validated: 1
EndChar

StartChar: uniF1DA
Encoding: 61914 61914 145
Width: 1024
VWidth: 0
Flags: H
LayerCount: 4
Back
Fore
SplineSet
512 307 m 1
 768 307 l 1
 768 51 l 1
 512 51 l 1
 512 307 l 1
EndSplineSet
Validated: 1
EndChar

StartChar: uniF1DB
Encoding: 61915 61915 146
Width: 1024
VWidth: 0
Flags: H
LayerCount: 4
Back
Fore
SplineSet
768 307 m 1
 1024 307 l 1
 1024 51 l 1
 768 51 l 1
 768 307 l 1
EndSplineSet
Validated: 1
EndChar

StartChar: uniF1DC
Encoding: 61916 61916 147
Width: 1024
VWidth: 0
Flags: H
LayerCount: 4
Back
Fore
SplineSet
0 51 m 1
 256 51 l 1
 256 -205 l 1
 0 -205 l 1
 0 51 l 1
EndSplineSet
Validated: 1
EndChar

StartChar: uniF1DD
Encoding: 61917 61917 148
Width: 1024
VWidth: 0
Flags: H
LayerCount: 4
Back
Fore
SplineSet
256 51 m 1
 512 51 l 1
 512 -205 l 1
 256 -205 l 1
 256 51 l 1
EndSplineSet
Validated: 1
EndChar

StartChar: uniF1DE
Encoding: 61918 61918 149
Width: 1024
VWidth: 0
Flags: H
LayerCount: 4
Back
Fore
SplineSet
512 51 m 1
 768 51 l 1
 768 -205 l 1
 512 -205 l 1
 512 51 l 1
EndSplineSet
Validated: 1
EndChar

StartChar: uniF1DF
Encoding: 61919 61919 150
Width: 1024
VWidth: 0
Flags: H
LayerCount: 4
Back
Fore
SplineSet
768 51 m 1
 1024 51 l 1
 1024 -205 l 1
 768 -205 l 1
 768 51 l 1
EndSplineSet
Validated: 1
EndChar

StartChar: uniF185
Encoding: 61829 61829 151
Width: 1024
VWidth: 0
Flags: H
LayerCount: 4
Back
Fore
SplineSet
512 819 m 1
 640 819 l 1
 640 563 l 1
 512 563 l 1
 512 819 l 1
640 563 m 1
 768 563 l 1
 768 435 l 1
 640 435 l 1
 640 563 l 1
768 435 m 1
 1024 435 l 1
 1024 307 l 1
 768 307 l 1
 768 435 l 1
EndSplineSet
Validated: 5
EndChar

StartChar: uniF186
Encoding: 61830 61830 152
Width: 1024
VWidth: 0
Flags: H
LayerCount: 4
Back
Fore
SplineSet
768 307 m 1
 1024 307 l 1
 1024 179 l 1
 768 179 l 1
 768 307 l 1
640 179 m 1
 768 179 l 1
 768 51 l 1
 640 51 l 1
 640 179 l 1
512 51 m 1
 640 51 l 1
 640 -205 l 1
 512 -205 l 1
 512 51 l 1
EndSplineSet
Validated: 5
EndChar

StartChar: uniF187
Encoding: 61831 61831 153
Width: 1024
VWidth: 0
Flags: H
LayerCount: 4
Back
Fore
SplineSet
0 307 m 1
 256 307 l 1
 256 179 l 1
 0 179 l 1
 0 307 l 1
256 179 m 1
 384 179 l 1
 384 51 l 1
 256 51 l 1
 256 179 l 1
384 51 m 1
 512 51 l 1
 512 -205 l 1
 384 -205 l 1
 384 51 l 1
EndSplineSet
Validated: 5
EndChar

StartChar: uniF1F1
Encoding: 61937 61937 154
Width: 1024
VWidth: 0
Flags: H
LayerCount: 4
Back
Fore
SplineSet
768 819 m 1
 1024 819 l 1
 1024 563 l 1
 768 563 l 1
 768 819 l 1
EndSplineSet
Validated: 1
EndChar

StartChar: uniF1F2
Encoding: 61938 61938 155
Width: 1024
VWidth: 0
Flags: H
LayerCount: 4
Back
Fore
SplineSet
768 819 m 1
 1024 819 l 1
 1024 307 l 1
 768 307 l 1
 768 819 l 1
EndSplineSet
Validated: 1
EndChar

StartChar: uniF1F3
Encoding: 61939 61939 156
Width: 1024
VWidth: 0
Flags: H
LayerCount: 4
Back
Fore
SplineSet
768 819 m 1
 1024 819 l 1
 1024 51 l 1
 768 51 l 1
 768 819 l 1
EndSplineSet
Validated: 1
EndChar

StartChar: at
Encoding: 64 64 157
Width: 1024
VWidth: 0
Flags: H
LayerCount: 4
Back
Fore
SplineSet
512 435 m 1
 512 307 l 1
 640 307 l 1
 640 435 l 1
 512 435 l 1
256 819 m 1
 640 819 l 1
 640 691 l 1
 256 691 l 1
 256 819 l 1
128 691 m 1
 256 691 l 1
 256 51 l 1
 768 51 l 1
 768 -77 l 1
 256 -77 l 1
 256 51 l 5
 128 51 l 1
 128 691 l 1
640 691 m 1
 768 691 l 1
 768 179 l 1
 384 179 l 1
 384 563 l 1
 639 561 l 1
 640 691 l 1
EndSplineSet
Validated: 5
EndChar

StartChar: A
Encoding: 65 65 158
Width: 1024
VWidth: 0
Flags: H
LayerCount: 4
Back
Fore
SplineSet
256 819 m 1
 640 819 l 1
 640 691 l 1
 256 691 l 1
 256 819 l 1
128 691 m 1
 256 691 l 1
 256 435 l 1
 640 435 l 1
 640 691 l 1
 768 691 l 1
 768 -77 l 1
 640 -77 l 1
 640 307 l 1
 256 307 l 1
 256 -77 l 1
 128 -77 l 1
 128 691 l 1
EndSplineSet
Validated: 5
EndChar

StartChar: a
Encoding: 97 97 159
Width: 1024
VWidth: 0
Flags: H
LayerCount: 4
Back
Fore
SplineSet
256 435 m 1
 256 51 l 1
 640 51 l 1
 640 307 l 1
 512 307 l 1
 512 435 l 1
 256 435 l 1
256 563 m 1
 512 563 l 1
 512 435 l 1
 640 435 l 1
 640 563 l 1
 768 563 l 1
 768 51 l 1
 896 51 l 1
 896 -77 l 1
 768 -77 l 1
 768 51 l 1
 640 51 l 1
 640 -77 l 1
 256 -77 l 1
 256 51 l 1
 128 51 l 1
 128 435 l 1
 256 435 l 1
 256 563 l 1
EndSplineSet
Validated: 5
EndChar

StartChar: B
Encoding: 66 66 160
Width: 1024
VWidth: 0
Flags: H
LayerCount: 4
Back
Fore
SplineSet
128 819 m 1
 640 819 l 1
 640 691 l 1
 384 691 l 1
 384 435 l 1
 640 435 l 1
 640 307 l 1
 384 307 l 1
 384 51 l 1
 640 51 l 1
 640 -77 l 1
 128 -77 l 1
 128 51 l 1
 256 51 l 1
 256 691 l 1
 128 691 l 1
 128 819 l 1
640 691 m 1
 768 691 l 1
 768 435 l 1
 640 435 l 1
 640 691 l 1
640 307 m 1
 768 307 l 1
 768 51 l 1
 640 51 l 1
 640 307 l 1
EndSplineSet
Validated: 5
EndChar

StartChar: five
Encoding: 53 53 161
Width: 1024
VWidth: 0
Flags: H
LayerCount: 4
Back
Fore
SplineSet
128 819 m 1
 768 819 l 1
 768 691 l 1
 256 691 l 1
 256 563 l 1
 640 563 l 1
 640 435 l 1
 128 435 l 1
 128 819 l 1
640 435 m 1
 768 435 l 1
 768 51 l 1
 640 51 l 1
 640 -77 l 1
 256 -77 l 1
 256 51 l 1
 128 51 l 1
 128 179 l 1
 256 179 l 1
 256 51 l 1
 640 51 l 1
 640 435 l 1
128 819 m 1
 768 819 l 1
 768 691 l 1
 256 691 l 1
 256 563 l 1
 640 563 l 1
 640 435 l 1
 128 435 l 1
 128 819 l 1
640 435 m 1
 768 435 l 1
 768 51 l 1
 640 51 l 1
 640 -77 l 1
 256 -77 l 1
 256 51 l 1
 128 51 l 1
 128 179 l 1
 256 179 l 1
 256 51 l 1
 640 51 l 1
 640 435 l 1
EndSplineSet
Validated: 5
EndChar

StartChar: four
Encoding: 52 52 162
Width: 1024
VWidth: 0
Flags: H
LayerCount: 4
Back
Fore
SplineSet
512 819 m 1
 640 819 l 1
 640 307 l 1
 768 307 l 1
 768 179 l 1
 640 179 l 1
 640 -77 l 1
 512 -77 l 1
 512 179 l 1
 128 179 l 1
 128 435 l 1
 256 435 l 1
 256 307 l 1
 512 307 l 1
 512 563 l 1
 384 563 l 1
 384 691 l 1
 512 691 l 1
 512 819 l 1
256 563 m 1
 384 563 l 1
 384 435 l 1
 256 435 l 1
 256 563 l 1
EndSplineSet
Validated: 5
EndChar

StartChar: b
Encoding: 98 98 163
Width: 1024
VWidth: 0
Flags: H
LayerCount: 4
Back
Fore
SplineSet
128 819 m 1
 256 819 l 1
 256 435 l 1
 384 435 l 1
 384 307 l 1
 256 307 l 1
 256 51 l 1
 640 51 l 1
 640 -77 l 1
 128 -77 l 1
 128 819 l 1
384 563 m 1
 640 563 l 1
 640 435 l 1
 768 435 l 1
 768 51 l 1
 640 51 l 1
 640 435 l 1
 384 435 l 1
 384 563 l 1
EndSplineSet
Validated: 5
EndChar

StartChar: three
Encoding: 51 51 164
Width: 1024
VWidth: 0
Flags: H
LayerCount: 4
Back
Fore
SplineSet
128 819 m 1
 768 819 l 1
 768 691 l 1
 640 691 l 1
 640 563 l 1
 512 563 l 1
 512 691 l 1
 128 691 l 1
 128 819 l 1
384 563 m 1
 512 563 l 1
 512 435 l 1
 640 435 l 1
 640 307 l 1
 768 307 l 1
 768 51 l 1
 640 51 l 1
 640 -77 l 1
 256 -77 l 1
 256 51 l 1
 128 51 l 1
 128 179 l 1
 256 179 l 1
 256 51 l 1
 640 51 l 1
 640 307 l 1
 512 307 l 1
 512 435 l 1
 384 435 l 1
 384 563 l 1
EndSplineSet
Validated: 5
EndChar

StartChar: two
Encoding: 50 50 165
Width: 1024
VWidth: 0
Flags: H
LayerCount: 4
Back
Fore
SplineSet
256 819 m 1
 640 819 l 1
 640 691 l 1
 256 691 l 1
 256 819 l 1
128 691 m 1
 256 691 l 1
 256 563 l 1
 128 563 l 1
 128 691 l 1
640 691 m 1
 768 691 l 1
 768 435 l 1
 640 435 l 1
 640 307 l 1
 512 307 l 1
 512 179 l 1
 384 179 l 1
 384 51 l 1
 768 51 l 1
 768 -77 l 1
 128 -77 l 1
 128 51 l 1
 256 51 l 1
 256 179 l 1
 384 179 l 1
 384 307 l 1
 512 307 l 1
 512 435 l 1
 640 435 l 1
 640 691 l 1
EndSplineSet
Validated: 5
EndChar

StartChar: one
Encoding: 49 49 166
Width: 1024
VWidth: 0
Flags: H
LayerCount: 4
Back
Fore
SplineSet
384 819 m 1
 512 819 l 1
 512 51 l 1
 640 51 l 1
 640 -77 l 1
 256 -77 l 1
 256 51 l 1
 384 51 l 1
 384 563 l 1
 256 563 l 1
 256 691 l 1
 384 691 l 1
 384 819 l 1
EndSplineSet
Validated: 1
EndChar

StartChar: zero
Encoding: 48 48 167
Width: 1024
VWidth: 0
Flags: H
LayerCount: 4
Back
Fore
SplineSet
256 819 m 1
 640 819 l 1
 640 691 l 1
 256 691 l 1
 256 819 l 1
128 691 m 1
 256 691 l 1
 256 51 l 1
 640 51 l 1
 640 691 l 1
 768 691 l 1
 768 51 l 1
 640 51 l 1
 640 -77 l 1
 256 -77 l 1
 256 51 l 1
 128 51 l 1
 128 691 l 1
384 435 m 1
 512 435 l 1
 512 307 l 1
 384 307 l 1
 384 435 l 1
EndSplineSet
Validated: 5
EndChar

StartChar: slash
Encoding: 47 47 168
Width: 1024
VWidth: 0
Flags: H
LayerCount: 4
Back
Fore
SplineSet
640 691 m 1
 768 691 l 1
 768 563 l 1
 640 563 l 1
 640 435 l 1
 512 435 l 1
 512 307 l 1
 384 307 l 1
 384 179 l 1
 256 179 l 1
 256 51 l 1
 128 51 l 1
 128 179 l 1
 256 179 l 1
 256 307 l 1
 384 307 l 1
 384 435 l 1
 512 435 l 1
 512 563 l 1
 640 563 l 1
 640 691 l 1
EndSplineSet
Validated: 5
EndChar

StartChar: period
Encoding: 46 46 169
Width: 1024
VWidth: 0
Flags: H
LayerCount: 4
Back
Fore
SplineSet
256 179 m 1
 512 179 l 1
 512 -77 l 1
 256 -77 l 1
 256 179 l 1
EndSplineSet
Validated: 1
EndChar

StartChar: exclam
Encoding: 33 33 171
Width: 1024
VWidth: 0
Flags: H
LayerCount: 4
Back
Fore
SplineSet
384 819 m 1
 512 819 l 1
 512 307 l 1
 384 307 l 1
 384 819 l 1
384 51 m 1
 512 51 l 1
 512 -77 l 1
 384 -77 l 1
 384 51 l 1
EndSplineSet
Validated: 1
EndChar

StartChar: quotedbl
Encoding: 34 34 172
Width: 1024
VWidth: 0
Flags: H
LayerCount: 4
Back
Fore
SplineSet
256 819 m 1
 384 819 l 1
 384 435 l 1
 256 435 l 1
 256 819 l 1
512 819 m 1
 640 819 l 1
 640 435 l 1
 512 435 l 1
 512 819 l 1
EndSplineSet
Validated: 1
EndChar

StartChar: numbersign
Encoding: 35 35 173
Width: 1024
VWidth: 0
Flags: H
LayerCount: 4
Back
Fore
SplineSet
384 563 m 1
 384 179 l 1
 640 179 l 1
 640 563 l 1
 384 563 l 1
256 819 m 1
 384 819 l 1
 384 691 l 1
 640 691 l 1
 640 819 l 1
 768 819 l 1
 768 691 l 1
 896 691 l 1
 896 563 l 1
 768 563 l 1
 768 179 l 1
 896 179 l 1
 896 51 l 1
 768 51 l 1
 768 -77 l 1
 640 -77 l 1
 640 51 l 1
 384 51 l 1
 384 -77 l 1
 256 -77 l 1
 256 51 l 1
 128 51 l 1
 128 179 l 1
 256 179 l 1
 256 563 l 1
 128 563 l 1
 128 691 l 1
 256 691 l 1
 256 819 l 1
EndSplineSet
Validated: 1
EndChar

StartChar: dollar
Encoding: 36 36 174
Width: 1024
VWidth: 0
Flags: H
LayerCount: 4
Back
Fore
SplineSet
384 819 m 1
 512 819 l 1
 512 691 l 1
 768 691 l 1
 768 563 l 1
 512 563 l 1
 512 435 l 1
 640 435 l 1
 640 307 l 1
 512 307 l 1
 512 179 l 1
 640 179 l 1
 640 51 l 1
 512 51 l 1
 512 -77 l 1
 384 -77 l 1
 384 51 l 1
 128 51 l 1
 128 179 l 1
 384 179 l 1
 384 307 l 1
 256 307 l 1
 256 435 l 1
 384 435 l 1
 384 563 l 1
 256 563 l 1
 256 691 l 1
 384 691 l 1
 384 819 l 1
128 563 m 1
 256 563 l 1
 256 435 l 1
 128 435 l 1
 128 563 l 1
640 307 m 1
 768 307 l 1
 768 179 l 1
 640 179 l 1
 640 307 l 1
EndSplineSet
Validated: 5
EndChar

StartChar: percent
Encoding: 37 37 175
Width: 1024
VWidth: 0
Flags: H
LayerCount: 4
Back
Fore
SplineSet
128 819 m 1
 384 819 l 1
 384 563 l 1
 128 563 l 1
 128 819 l 1
640 691 m 1
 768 691 l 1
 768 563 l 1
 640 563 l 1
 640 435 l 1
 512 435 l 1
 512 307 l 1
 384 307 l 1
 384 179 l 1
 256 179 l 1
 256 51 l 1
 128 51 l 1
 128 179 l 1
 256 179 l 1
 256 307 l 1
 384 307 l 1
 384 435 l 1
 512 435 l 1
 512 563 l 1
 640 563 l 1
 640 691 l 1
512 179 m 1
 768 179 l 1
 768 -77 l 1
 512 -77 l 1
 512 179 l 1
EndSplineSet
Validated: 5
EndChar

StartChar: ampersand
Encoding: 38 38 176
Width: 1024
VWidth: 0
Flags: H
LayerCount: 4
Back
Fore
SplineSet
256 307 m 1
 256 51 l 1
 512 51 l 1
 512 179 l 1
 384 179 l 1
 384 307 l 1
 256 307 l 1
384 819 m 1
 512 819 l 1
 512 691 l 1
 384 691 l 1
 384 819 l 1
256 691 m 1
 384 691 l 1
 384 435 l 1
 512 435 l 1
 512 691 l 1
 640 691 l 1
 640 435 l 1
 512 435 l 1
 512 179 l 1
 640 179 l 1
 640 307 l 1
 768 307 l 1
 768 179 l 1
 640 179 l 1
 640 51 l 1
 768 51 l 1
 768 -77 l 1
 640 -77 l 1
 640 51 l 1
 512 51 l 1
 512 -77 l 1
 256 -77 l 1
 256 51 l 1
 128 51 l 1
 128 307 l 1
 256 307 l 1
 256 691 l 1
EndSplineSet
Validated: 5
EndChar

StartChar: quotesingle
Encoding: 39 39 177
Width: 1024
VWidth: 0
Flags: H
LayerCount: 4
Back
Fore
SplineSet
384 819 m 1
 512 819 l 1
 512 563 l 1
 384 563 l 1
 384 819 l 1
256 563 m 1
 384 563 l 1
 384 435 l 1
 256 435 l 1
 256 563 l 1
EndSplineSet
Validated: 5
EndChar

StartChar: parenleft
Encoding: 40 40 178
Width: 1024
VWidth: 0
Flags: H
LayerCount: 4
Back
Fore
SplineSet
512 819 m 1
 640 819 l 1
 640 691 l 1
 512 691 l 1
 512 819 l 1
384 691 m 1
 512 691 l 1
 512 563 l 1
 384 563 l 1
 384 179 l 1
 512 179 l 1
 512 51 l 1
 640 51 l 1
 640 -77 l 1
 512 -77 l 1
 512 51 l 1
 384 51 l 1
 384 179 l 1
 256 179 l 1
 256 563 l 1
 384 563 l 1
 384 691 l 1
EndSplineSet
Validated: 5
EndChar

StartChar: parenright
Encoding: 41 41 179
Width: 1024
VWidth: 0
Flags: H
LayerCount: 4
Back
Fore
SplineSet
256 819 m 1
 384 819 l 1
 384 691 l 1
 256 691 l 1
 256 819 l 1
384 691 m 1
 512 691 l 1
 512 563 l 1
 640 563 l 1
 640 179 l 1
 512 179 l 1
 512 51 l 1
 384 51 l 1
 384 -77 l 1
 256 -77 l 1
 256 51 l 1
 384 51 l 1
 384 179 l 1
 512 179 l 1
 512 563 l 1
 384 563 l 1
 384 691 l 1
EndSplineSet
Validated: 5
EndChar

StartChar: asterisk
Encoding: 42 42 180
Width: 1024
VWidth: 0
Flags: H
LayerCount: 4
Back
Fore
SplineSet
384 691 m 1
 512 691 l 1
 512 435 l 1
 640 435 l 1
 640 563 l 1
 768 563 l 1
 768 435 l 1
 640 435 l 1
 640 307 l 1
 768 307 l 1
 768 179 l 1
 640 179 l 1
 640 307 l 1
 512 307 l 1
 512 51 l 1
 384 51 l 1
 384 307 l 1
 256 307 l 1
 256 179 l 1
 128 179 l 1
 128 307 l 1
 256 307 l 1
 256 435 l 1
 128 435 l 1
 128 563 l 1
 256 563 l 1
 256 435 l 1
 384 435 l 1
 384 691 l 1
EndSplineSet
Validated: 5
EndChar

StartChar: plus
Encoding: 43 43 181
Width: 1024
VWidth: 0
Flags: H
LayerCount: 4
Back
Fore
SplineSet
384 691 m 1
 512 691 l 1
 512 435 l 1
 768 435 l 1
 768 307 l 1
 512 307 l 1
 512 51 l 1
 384 51 l 1
 384 307 l 1
 128 307 l 1
 128 435 l 1
 384 435 l 1
 384 691 l 1
EndSplineSet
Validated: 1
EndChar

StartChar: comma
Encoding: 44 44 182
Width: 1024
VWidth: 0
Flags: H
LayerCount: 4
Back
Fore
SplineSet
384 307 m 1
 512 307 l 1
 512 51 l 1
 384 51 l 1
 384 -77 l 1
 256 -77 l 1
 256 51 l 1
 384 51 l 1
 384 307 l 1
EndSplineSet
Validated: 5
EndChar

StartChar: hyphen
Encoding: 45 45 183
Width: 1024
VWidth: 0
Flags: H
LayerCount: 4
Back
Fore
SplineSet
128 435 m 1
 768 435 l 1
 768 307 l 1
 128 307 l 1
 128 435 l 1
EndSplineSet
Validated: 1
EndChar

StartChar: six
Encoding: 54 54 184
Width: 1024
VWidth: 0
Flags: H
LayerCount: 4
Back
Fore
SplineSet
256 307 m 1
 256 51 l 1
 640 51 l 1
 640 307 l 1
 256 307 l 1
384 819 m 1
 640 819 l 1
 640 691 l 1
 384 691 l 1
 384 819 l 1
256 691 m 1
 384 691 l 1
 384 563 l 1
 256 563 l 1
 256 435 l 1
 640 435 l 1
 640 307 l 1
 768 307 l 1
 768 51 l 1
 640 51 l 1
 640 -77 l 1
 256 -77 l 1
 256 51 l 1
 128 51 l 1
 128 563 l 1
 256 563 l 1
 256 691 l 1
EndSplineSet
Validated: 5
EndChar

StartChar: seven
Encoding: 55 55 185
Width: 1024
VWidth: 0
Flags: H
LayerCount: 4
Back
Fore
SplineSet
128 819 m 1
 768 819 l 1
 768 563 l 1
 640 563 l 1
 640 691 l 1
 128 691 l 1
 128 819 l 1
512 563 m 1
 640 563 l 1
 640 435 l 1
 512 435 l 1
 512 307 l 1
 384 307 l 1
 384 -77 l 1
 256 -77 l 1
 256 307 l 1
 384 307 l 1
 384 435 l 1
 512 435 l 1
 512 563 l 1
EndSplineSet
Validated: 5
EndChar

StartChar: eight
Encoding: 56 56 186
Width: 1024
VWidth: 0
Flags: H
LayerCount: 4
Back
Fore
SplineSet
256 307 m 1
 256 51 l 1
 640 51 l 1
 640 307 l 1
 256 307 l 1
256 819 m 1
 640 819 l 1
 640 691 l 1
 256 691 l 1
 256 819 l 1
128 691 m 1
 256 691 l 1
 256 435 l 1
 640 435 l 1
 640 691 l 1
 768 691 l 1
 768 435 l 1
 640 435 l 1
 640 307 l 1
 768 307 l 1
 768 51 l 1
 640 51 l 1
 640 -77 l 1
 256 -77 l 1
 256 51 l 1
 128 51 l 1
 128 307 l 1
 256 307 l 1
 256 435 l 1
 128 435 l 1
 128 691 l 1
EndSplineSet
Validated: 5
EndChar

StartChar: nine
Encoding: 57 57 187
Width: 1024
VWidth: 0
Flags: H
LayerCount: 4
Back
Fore
SplineSet
256 819 m 1
 640 819 l 1
 640 691 l 1
 256 691 l 1
 256 819 l 1
128 691 m 1
 256 691 l 1
 256 435 l 1
 640 435 l 1
 640 691 l 1
 768 691 l 1
 768 179 l 1
 640 179 l 1
 640 51 l 1
 512 51 l 1
 512 -77 l 1
 256 -77 l 1
 256 51 l 1
 512 51 l 1
 512 179 l 1
 640 179 l 1
 640 307 l 1
 256 307 l 1
 256 435 l 1
 128 435 l 1
 128 691 l 1
EndSplineSet
Validated: 5
EndChar

StartChar: colon
Encoding: 58 58 188
Width: 1024
VWidth: 0
Flags: H
LayerCount: 4
Back
Fore
SplineSet
256 691 m 1
 512 691 l 1
 512 435 l 1
 256 435 l 1
 256 691 l 1
256 307 m 1
 512 307 l 1
 512 51 l 1
 256 51 l 1
 256 307 l 1
EndSplineSet
Validated: 1
EndChar

StartChar: semicolon
Encoding: 59 59 189
Width: 1024
VWidth: 0
Flags: H
LayerCount: 4
Back
Fore
SplineSet
384 563 m 1
 512 563 l 1
 512 435 l 1
 384 435 l 1
 384 563 l 1
384 307 m 1
 512 307 l 1
 512 51 l 1
 384 51 l 1
 384 -77 l 1
 256 -77 l 1
 256 51 l 1
 384 51 l 1
 384 307 l 1
EndSplineSet
Validated: 5
EndChar

StartChar: less
Encoding: 60 60 190
Width: 1024
VWidth: 0
Flags: H
LayerCount: 4
Back
Fore
SplineSet
512 819 m 1
 640 819 l 1
 640 691 l 1
 512 691 l 1
 512 819 l 1
384 691 m 1
 512 691 l 1
 512 563 l 1
 384 563 l 1
 384 435 l 1
 256 435 l 1
 256 307 l 1
 384 307 l 1
 384 179 l 1
 512 179 l 1
 512 51 l 1
 640 51 l 1
 640 -77 l 1
 512 -77 l 1
 512 51 l 1
 384 51 l 1
 384 179 l 1
 256 179 l 1
 256 307 l 1
 128 307 l 1
 128 435 l 1
 256 435 l 1
 256 563 l 1
 384 563 l 1
 384 691 l 1
EndSplineSet
Validated: 5
EndChar

StartChar: equal
Encoding: 61 61 191
Width: 1024
VWidth: 0
Flags: H
LayerCount: 4
Back
Fore
SplineSet
128 563 m 1
 768 563 l 1
 768 435 l 1
 128 435 l 1
 128 563 l 1
128 307 m 1
 768 307 l 1
 768 179 l 1
 128 179 l 1
 128 307 l 1
EndSplineSet
Validated: 1
EndChar

StartChar: greater
Encoding: 62 62 192
Width: 1024
VWidth: 0
Flags: H
LayerCount: 4
Back
Fore
SplineSet
256 819 m 1
 384 819 l 1
 384 691 l 1
 256 691 l 1
 256 819 l 1
384 691 m 1
 512 691 l 1
 512 563 l 1
 640 563 l 1
 640 435 l 1
 768 435 l 1
 768 307 l 1
 640 307 l 1
 640 179 l 1
 512 179 l 1
 512 51 l 1
 384 51 l 1
 384 -77 l 1
 256 -77 l 1
 256 51 l 1
 384 51 l 1
 384 179 l 1
 512 179 l 1
 512 307 l 1
 640 307 l 1
 640 435 l 1
 512 435 l 1
 512 563 l 1
 384 563 l 1
 384 691 l 1
EndSplineSet
Validated: 5
EndChar

StartChar: question
Encoding: 63 63 193
Width: 1024
VWidth: 0
Flags: H
LayerCount: 4
Back
Fore
SplineSet
256 819 m 1
 640 819 l 1
 640 691 l 1
 256 691 l 1
 256 819 l 1
128 691 m 1
 256 691 l 1
 256 563 l 1
 128 563 l 1
 128 691 l 1
640 691 m 1
 768 691 l 1
 768 435 l 1
 640 435 l 1
 640 307 l 1
 512 307 l 1
 512 179 l 1
 384 179 l 1
 384 307 l 1
 512 307 l 1
 512 435 l 1
 640 435 l 1
 640 691 l 1
384 51 m 1
 512 51 l 1
 512 -77 l 1
 384 -77 l 1
 384 51 l 1
EndSplineSet
Validated: 5
EndChar

StartChar: C
Encoding: 67 67 194
Width: 1024
VWidth: 0
Flags: H
LayerCount: 4
Back
Fore
SplineSet
256 819 m 1
 640 819 l 1
 640 691 l 1
 256 691 l 1
 256 819 l 1
128 691 m 1
 256 691 l 1
 256 51 l 1
 640 51 l 1
 640 179 l 1
 768 179 l 1
 768 51 l 1
 640 51 l 1
 640 -77 l 1
 256 -77 l 1
 256 51 l 1
 128 51 l 1
 128 691 l 1
640 691 m 1
 768 691 l 1
 768 563 l 1
 640 563 l 1
 640 691 l 1
EndSplineSet
Validated: 5
EndChar

StartChar: D
Encoding: 68 68 195
Width: 1024
VWidth: 0
Flags: H
LayerCount: 4
Back
Fore
SplineSet
128 819 m 1
 640 819 l 1
 640 691 l 1
 384 691 l 1
 384 51 l 1
 640 51 l 1
 640 -77 l 1
 128 -77 l 1
 128 51 l 1
 256 51 l 1
 256 691 l 1
 128 691 l 1
 128 819 l 1
640 691 m 1
 768 691 l 1
 768 51 l 1
 640 51 l 1
 640 691 l 1
EndSplineSet
Validated: 5
EndChar

StartChar: c
Encoding: 99 99 196
Width: 1024
VWidth: 0
Flags: H
LayerCount: 4
Back
Fore
SplineSet
256 563 m 1
 640 563 l 1
 640 435 l 1
 768 435 l 1
 768 307 l 1
 640 307 l 1
 640 435 l 1
 256 435 l 1
 256 51 l 1
 640 51 l 1
 640 179 l 1
 768 179 l 1
 768 51 l 1
 640 51 l 1
 640 -77 l 1
 256 -77 l 1
 256 51 l 1
 128 51 l 1
 128 435 l 1
 256 435 l 1
 256 563 l 1
EndSplineSet
Validated: 5
EndChar

StartChar: E
Encoding: 69 69 197
Width: 1024
VWidth: 0
Flags: H
LayerCount: 4
Back
Fore
SplineSet
128 819 m 1
 768 819 l 1
 768 691 l 1
 256 691 l 1
 256 435 l 1
 640 435 l 1
 640 307 l 1
 256 307 l 1
 256 51 l 1
 768 51 l 1
 768 -77 l 1
 128 -77 l 1
 128 819 l 1
EndSplineSet
Validated: 1
EndChar

StartChar: F
Encoding: 70 70 198
Width: 1024
VWidth: 0
Flags: H
LayerCount: 4
Back
Fore
SplineSet
128 819 m 1
 768 819 l 1
 768 691 l 1
 256 691 l 1
 256 435 l 1
 640 435 l 1
 640 307 l 1
 256 307 l 1
 256 -77 l 1
 128 -77 l 1
 128 819 l 1
EndSplineSet
Validated: 1
EndChar

StartChar: G
Encoding: 71 71 199
Width: 1024
VWidth: 0
Flags: H
LayerCount: 4
Back
Fore
SplineSet
256 819 m 1
 640 819 l 1
 640 691 l 1
 256 691 l 1
 256 819 l 1
128 691 m 1
 256 691 l 1
 256 51 l 1
 640 51 l 1
 640 179 l 1
 512 179 l 1
 512 307 l 1
 768 307 l 1
 768 -77 l 1
 256 -77 l 1
 256 51 l 1
 128 51 l 1
 128 691 l 1
640 691 m 1
 768 691 l 1
 768 563 l 1
 640 563 l 1
 640 691 l 1
EndSplineSet
Validated: 5
EndChar

StartChar: H
Encoding: 72 72 200
Width: 1024
VWidth: 0
Flags: H
LayerCount: 4
Back
Fore
SplineSet
128 819 m 1
 256 819 l 1
 256 435 l 1
 640 435 l 1
 640 819 l 1
 768 819 l 1
 768 -77 l 1
 640 -77 l 1
 640 307 l 1
 256 307 l 1
 256 -77 l 1
 128 -77 l 1
 128 819 l 1
EndSplineSet
Validated: 1
EndChar

StartChar: I
Encoding: 73 73 201
Width: 1024
VWidth: 0
Flags: H
LayerCount: 4
Back
Fore
SplineSet
256 819 m 1
 640 819 l 1
 640 691 l 1
 512 691 l 1
 512 51 l 1
 640 51 l 1
 640 -77 l 1
 256 -77 l 1
 256 51 l 1
 384 51 l 1
 384 691 l 1
 256 691 l 1
 256 819 l 1
EndSplineSet
Validated: 1
EndChar

StartChar: J
Encoding: 74 74 202
Width: 1024
VWidth: 0
Flags: H
LayerCount: 4
Back
Fore
SplineSet
384 819 m 1
 768 819 l 1
 768 691 l 1
 640 691 l 1
 640 51 l 1
 512 51 l 1
 512 691 l 1
 384 691 l 1
 384 819 l 1
128 179 m 1
 256 179 l 1
 256 51 l 1
 512 51 l 1
 512 -77 l 1
 256 -77 l 1
 256 51 l 1
 128 51 l 1
 128 179 l 1
EndSplineSet
Validated: 5
EndChar

StartChar: K
Encoding: 75 75 203
Width: 1024
VWidth: 0
Flags: H
LayerCount: 4
Back
Fore
SplineSet
128 819 m 1
 256 819 l 1
 256 435 l 1
 384 435 l 1
 384 307 l 1
 256 307 l 1
 256 -77 l 1
 128 -77 l 1
 128 819 l 1
640 819 m 1
 768 819 l 1
 768 691 l 1
 640 691 l 1
 640 819 l 1
512 691 m 1
 640 691 l 1
 640 563 l 1
 512 563 l 1
 512 435 l 1
 384 435 l 1
 384 563 l 1
 512 563 l 1
 512 691 l 1
384 307 m 1
 512 307 l 1
 512 179 l 1
 640 179 l 1
 640 51 l 1
 768 51 l 1
 768 -77 l 1
 640 -77 l 1
 640 51 l 1
 512 51 l 1
 512 179 l 1
 384 179 l 1
 384 307 l 1
EndSplineSet
Validated: 5
EndChar

StartChar: L
Encoding: 76 76 204
Width: 1024
VWidth: 0
Flags: H
LayerCount: 4
Back
Fore
SplineSet
128 819 m 1
 256 819 l 1
 256 51 l 1
 768 51 l 1
 768 -77 l 1
 128 -77 l 1
 128 819 l 1
EndSplineSet
Validated: 1
EndChar

StartChar: M
Encoding: 77 77 205
Width: 1024
VWidth: 0
Flags: H
LayerCount: 4
Back
Fore
SplineSet
128 819 m 1
 256 819 l 1
 256 691 l 1
 384 691 l 1
 384 563 l 1
 256 563 l 1
 256 -77 l 1
 128 -77 l 1
 128 819 l 1
640 819 m 1
 768 819 l 1
 768 -77 l 1
 640 -77 l 1
 640 563 l 1
 512 563 l 1
 512 691 l 1
 640 691 l 1
 640 819 l 1
384 563 m 1
 512 563 l 1
 512 307 l 1
 384 307 l 1
 384 563 l 1
EndSplineSet
Validated: 5
EndChar

StartChar: N
Encoding: 78 78 206
Width: 1024
VWidth: 0
Flags: H
LayerCount: 4
Back
Fore
SplineSet
128 819 m 1
 256 819 l 1
 256 563 l 1
 384 563 l 1
 384 435 l 1
 256 435 l 1
 256 -77 l 1
 128 -77 l 1
 128 819 l 1
640 819 m 1
 768 819 l 1
 768 -77 l 1
 640 -77 l 1
 640 179 l 1
 512 179 l 1
 512 307 l 1
 640 307 l 1
 640 819 l 1
384 435 m 1
 512 435 l 1
 512 307 l 1
 384 307 l 1
 384 435 l 1
EndSplineSet
Validated: 5
EndChar

StartChar: O
Encoding: 79 79 207
Width: 1024
VWidth: 0
Flags: H
LayerCount: 4
Back
Fore
SplineSet
256 819 m 1
 640 819 l 1
 640 691 l 1
 256 691 l 1
 256 819 l 1
128 691 m 1
 256 691 l 1
 256 51 l 1
 640 51 l 1
 640 691 l 1
 768 691 l 1
 768 51 l 1
 640 51 l 1
 640 -77 l 1
 256 -77 l 1
 256 51 l 1
 128 51 l 1
 128 691 l 1
EndSplineSet
Validated: 5
EndChar

StartChar: P
Encoding: 80 80 208
Width: 1024
VWidth: 0
Flags: H
LayerCount: 4
Back
Fore
SplineSet
128 819 m 1
 640 819 l 1
 640 691 l 1
 256 691 l 1
 256 435 l 1
 640 435 l 1
 640 307 l 1
 256 307 l 1
 256 -77 l 1
 128 -77 l 1
 128 819 l 1
640 691 m 1
 768 691 l 1
 768 435 l 1
 640 435 l 1
 640 691 l 1
EndSplineSet
Validated: 5
EndChar

StartChar: Q
Encoding: 81 81 209
Width: 1024
VWidth: 0
Flags: H
LayerCount: 4
Back
Fore
SplineSet
256 819 m 1
 640 819 l 1
 640 691 l 1
 256 691 l 1
 256 819 l 1
128 691 m 1
 256 691 l 1
 256 51 l 1
 512 51 l 1
 512 179 l 1
 384 179 l 1
 384 307 l 1
 512 307 l 1
 512 179 l 1
 640 179 l 1
 640 691 l 1
 768 691 l 1
 768 179 l 1
 640 179 l 1
 640 51 l 1
 768 51 l 1
 768 -77 l 1
 640 -77 l 1
 640 51 l 1
 512 51 l 1
 512 -77 l 1
 256 -77 l 1
 256 51 l 1
 128 51 l 1
 128 691 l 1
EndSplineSet
Validated: 5
EndChar

StartChar: R
Encoding: 82 82 210
Width: 1024
VWidth: 0
Flags: H
LayerCount: 4
Back
Fore
SplineSet
128 819 m 1
 640 819 l 1
 640 691 l 1
 256 691 l 1
 256 435 l 1
 640 435 l 1
 640 307 l 1
 512 307 l 1
 512 179 l 1
 384 179 l 1
 384 307 l 1
 256 307 l 1
 256 -77 l 1
 128 -77 l 1
 128 819 l 1
640 691 m 1
 768 691 l 1
 768 435 l 1
 640 435 l 1
 640 691 l 1
512 179 m 1
 640 179 l 1
 640 51 l 1
 768 51 l 1
 768 -77 l 1
 640 -77 l 1
 640 51 l 1
 512 51 l 1
 512 179 l 1
EndSplineSet
Validated: 5
EndChar

StartChar: S
Encoding: 83 83 211
Width: 1024
VWidth: 0
Flags: H
LayerCount: 4
Back
Fore
SplineSet
256 819 m 1
 768 819 l 1
 768 691 l 1
 256 691 l 1
 256 819 l 1
128 691 m 1
 256 691 l 1
 256 435 l 1
 640 435 l 1
 640 307 l 1
 768 307 l 1
 768 51 l 1
 640 51 l 1
 640 -77 l 1
 128 -77 l 1
 128 51 l 1
 640 51 l 1
 640 307 l 1
 256 307 l 1
 256 435 l 1
 128 435 l 1
 128 691 l 1
EndSplineSet
Validated: 5
EndChar

StartChar: T
Encoding: 84 84 212
Width: 1024
VWidth: 0
Flags: H
LayerCount: 4
Back
Fore
SplineSet
128 819 m 1
 768 819 l 1
 768 691 l 1
 512 691 l 1
 512 -77 l 1
 384 -77 l 1
 384 691 l 1
 128 691 l 1
 128 819 l 1
EndSplineSet
Validated: 1
EndChar

StartChar: U
Encoding: 85 85 213
Width: 1024
VWidth: 0
Flags: H
LayerCount: 4
Back
Fore
SplineSet
128 819 m 1
 256 819 l 1
 256 51 l 1
 128 51 l 1
 128 819 l 1
640 819 m 1
 768 819 l 1
 768 51 l 1
 640 51 l 1
 640 819 l 1
256 51 m 1
 640 51 l 1
 640 -77 l 1
 256 -77 l 1
 256 51 l 1
EndSplineSet
Validated: 5
EndChar

StartChar: V
Encoding: 86 86 214
Width: 1024
VWidth: 0
Flags: H
LayerCount: 4
Back
Fore
SplineSet
128 819 m 1
 256 819 l 1
 256 179 l 1
 128 179 l 1
 128 819 l 1
640 819 m 1
 768 819 l 1
 768 179 l 1
 640 179 l 1
 640 819 l 1
256 179 m 1
 384 179 l 1
 384 51 l 1
 512 51 l 1
 512 179 l 1
 640 179 l 1
 640 51 l 1
 512 51 l 1
 512 -77 l 1
 384 -77 l 1
 384 51 l 1
 256 51 l 1
 256 179 l 1
EndSplineSet
Validated: 5
EndChar

StartChar: W
Encoding: 87 87 215
Width: 1024
VWidth: 0
Flags: H
LayerCount: 4
Back
Fore
SplineSet
128 819 m 1
 256 819 l 1
 256 179 l 1
 384 179 l 1
 384 51 l 1
 256 51 l 1
 256 -77 l 1
 128 -77 l 1
 128 819 l 1
640 819 m 1
 768 819 l 1
 768 -77 l 1
 640 -77 l 1
 640 51 l 1
 512 51 l 1
 512 179 l 1
 640 179 l 1
 640 819 l 1
384 435 m 1
 512 435 l 1
 512 179 l 1
 384 179 l 1
 384 435 l 1
EndSplineSet
Validated: 5
EndChar

StartChar: X
Encoding: 88 88 216
Width: 1024
VWidth: 0
Flags: H
LayerCount: 4
Back
Fore
SplineSet
128 819 m 1
 256 819 l 1
 256 563 l 1
 128 563 l 1
 128 819 l 1
640 819 m 1
 768 819 l 1
 768 563 l 1
 640 563 l 1
 640 819 l 1
256 563 m 1
 384 563 l 1
 384 435 l 1
 512 435 l 1
 512 563 l 1
 640 563 l 1
 640 435 l 1
 512 435 l 1
 512 307 l 1
 640 307 l 1
 640 179 l 1
 768 179 l 1
 768 -77 l 1
 640 -77 l 1
 640 179 l 1
 512 179 l 1
 512 307 l 1
 384 307 l 1
 384 179 l 1
 256 179 l 1
 256 -77 l 1
 128 -77 l 1
 128 179 l 1
 256 179 l 1
 256 307 l 1
 384 307 l 1
 384 435 l 1
 256 435 l 1
 256 563 l 1
EndSplineSet
Validated: 5
EndChar

StartChar: Y
Encoding: 89 89 217
Width: 1024
VWidth: 0
Flags: H
LayerCount: 4
Back
Fore
SplineSet
128 819 m 1
 256 819 l 1
 256 435 l 1
 128 435 l 1
 128 819 l 1
640 819 m 1
 768 819 l 1
 768 435 l 1
 640 435 l 1
 640 819 l 1
256 435 m 1
 384 435 l 1
 384 307 l 1
 512 307 l 1
 512 435 l 1
 640 435 l 1
 640 307 l 1
 512 307 l 1
 512 -77 l 1
 384 -77 l 1
 384 307 l 1
 256 307 l 1
 256 435 l 1
EndSplineSet
Validated: 5
EndChar

StartChar: Z
Encoding: 90 90 218
Width: 1024
VWidth: 0
Flags: H
LayerCount: 4
Back
Fore
SplineSet
128 819 m 1
 768 819 l 1
 768 563 l 1
 640 563 l 1
 640 691 l 1
 128 691 l 1
 128 819 l 1
512 563 m 1
 640 563 l 1
 640 435 l 1
 512 435 l 1
 512 307 l 1
 384 307 l 1
 384 179 l 1
 256 179 l 1
 256 51 l 1
 768 51 l 1
 768 -77 l 1
 128 -77 l 1
 128 179 l 1
 256 179 l 1
 256 307 l 1
 384 307 l 1
 384 435 l 1
 512 435 l 1
 512 563 l 1
EndSplineSet
Validated: 5
EndChar

StartChar: bracketleft
Encoding: 91 91 219
Width: 1024
VWidth: 0
Flags: H
LayerCount: 4
Back
Fore
SplineSet
256 819 m 1
 640 819 l 1
 640 691 l 1
 384 691 l 1
 384 51 l 1
 640 51 l 1
 640 -77 l 1
 256 -77 l 1
 256 819 l 1
EndSplineSet
Validated: 1
EndChar

StartChar: backslash
Encoding: 92 92 220
Width: 1024
VWidth: 0
Flags: H
LayerCount: 4
Back
Fore
SplineSet
128 691 m 1
 256 691 l 1
 256 563 l 1
 384 563 l 1
 384 435 l 1
 512 435 l 1
 512 307 l 1
 640 307 l 1
 640 179 l 1
 768 179 l 1
 768 51 l 1
 640 51 l 1
 640 179 l 1
 512 179 l 1
 512 307 l 1
 384 307 l 1
 384 435 l 1
 256 435 l 1
 256 563 l 1
 128 563 l 1
 128 691 l 1
EndSplineSet
Validated: 5
EndChar

StartChar: bracketright
Encoding: 93 93 221
Width: 1024
VWidth: 0
Flags: H
LayerCount: 4
Back
Fore
SplineSet
256 819 m 1
 640 819 l 1
 640 -77 l 1
 256 -77 l 1
 256 51 l 1
 512 51 l 1
 512 691 l 1
 256 691 l 1
 256 819 l 1
EndSplineSet
Validated: 1
EndChar

StartChar: asciicircum
Encoding: 94 94 222
Width: 1024
VWidth: 0
Flags: H
LayerCount: 4
Back
Fore
SplineSet
384 819 m 1
 512 819 l 1
 512 691 l 1
 384 691 l 1
 384 819 l 1
256 691 m 1
 384 691 l 1
 384 563 l 1
 256 563 l 1
 256 435 l 1
 128 435 l 1
 128 563 l 1
 256 563 l 1
 256 691 l 1
512 691 m 1
 640 691 l 1
 640 563 l 1
 768 563 l 1
 768 435 l 1
 640 435 l 1
 640 563 l 1
 512 563 l 1
 512 691 l 1
EndSplineSet
Validated: 5
EndChar

StartChar: underscore
Encoding: 95 95 223
Width: 1024
VWidth: 0
Flags: H
LayerCount: 4
Back
Fore
SplineSet
128 179 m 1
 768 179 l 1
 768 51 l 1
 128 51 l 1
 128 179 l 1
EndSplineSet
Validated: 1
EndChar

StartChar: grave
Encoding: 96 96 224
Width: 1024
VWidth: 0
Flags: H
LayerCount: 4
Back
Fore
SplineSet
256 691 m 1
 384 691 l 1
 384 563 l 1
 512 563 l 1
 512 435 l 1
 640 435 l 1
 640 307 l 1
 512 307 l 1
 512 435 l 1
 384 435 l 1
 384 563 l 1
 256 563 l 1
 256 691 l 1
EndSplineSet
Validated: 5
EndChar

StartChar: d
Encoding: 100 100 225
Width: 1024
VWidth: 0
Flags: H
LayerCount: 4
Back
Fore
SplineSet
640 819 m 1
 768 819 l 1
 768 51 l 1
 640 51 l 1
 640 307 l 1
 512 307 l 1
 512 435 l 1
 640 435 l 1
 640 819 l 1
256 563 m 1
 512 563 l 1
 512 435 l 1
 256 435 l 1
 256 51 l 1
 640 51 l 1
 640 -77 l 1
 256 -77 l 1
 256 51 l 1
 128 51 l 1
 128 435 l 1
 256 435 l 1
 256 563 l 1
768 51 m 1
 896 51 l 1
 896 -77 l 1
 768 -77 l 1
 768 51 l 1
EndSplineSet
Validated: 5
EndChar

StartChar: e
Encoding: 101 101 226
Width: 1024
VWidth: 0
Flags: H
LayerCount: 4
Back
Fore
SplineSet
256 435 m 1
 256 307 l 1
 640 307 l 1
 640 435 l 1
 256 435 l 1
256 563 m 1
 640 563 l 1
 640 435 l 1
 768 435 l 1
 768 179 l 1
 256 179 l 1
 256 51 l 1
 640 51 l 1
 640 -77 l 1
 256 -77 l 1
 256 51 l 1
 128 51 l 1
 128 435 l 1
 256 435 l 1
 256 563 l 1
EndSplineSet
Validated: 5
EndChar

StartChar: f
Encoding: 102 102 227
Width: 1024
VWidth: 0
Flags: H
LayerCount: 4
Back
Fore
SplineSet
512 819 m 1
 640 819 l 1
 640 691 l 1
 512 691 l 1
 512 819 l 1
384 691 m 1
 512 691 l 1
 512 563 l 1
 640 563 l 1
 640 435 l 1
 512 435 l 1
 512 -77 l 1
 384 -77 l 1
 384 435 l 1
 256 435 l 1
 256 563 l 1
 384 563 l 1
 384 691 l 1
EndSplineSet
Validated: 5
EndChar

StartChar: g
Encoding: 103 103 228
Width: 1024
VWidth: 0
Flags: H
LayerCount: 4
Back
Fore
SplineSet
256 -77 m 1
 640 -77 l 1
 640 -205 l 1
 256 -205 l 1
 256 -77 l 1
256 435 m 1
 256 179 l 1
 640 179 l 1
 640 307 l 1
 512 307 l 1
 512 435 l 1
 256 435 l 1
256 563 m 1
 512 563 l 1
 512 435 l 1
 640 435 l 1
 640 563 l 1
 768 563 l 1
 768 -77 l 1
 640 -77 l 1
 640 51 l 1
 256 51 l 1
 256 179 l 1
 128 179 l 1
 128 435 l 1
 256 435 l 1
 256 563 l 1
EndSplineSet
Validated: 5
EndChar

StartChar: h
Encoding: 104 104 229
Width: 1024
VWidth: 0
Flags: H
LayerCount: 4
Back
Fore
SplineSet
128 819 m 1
 256 819 l 1
 256 435 l 1
 384 435 l 1
 384 307 l 1
 256 307 l 1
 256 -77 l 1
 128 -77 l 1
 128 819 l 1
384 563 m 1
 640 563 l 1
 640 435 l 1
 768 435 l 1
 768 -77 l 1
 640 -77 l 1
 640 435 l 1
 384 435 l 1
 384 563 l 1
EndSplineSet
Validated: 5
EndChar

StartChar: i
Encoding: 105 105 230
Width: 1024
VWidth: 0
Flags: H
LayerCount: 4
Back
Fore
SplineSet
384 819 m 1
 512 819 l 1
 512 691 l 1
 384 691 l 1
 384 819 l 1
384 563 m 1
 512 563 l 1
 512 51 l 1
 640 51 l 1
 640 -77 l 1
 512 -77 l 1
 512 51 l 1
 384 51 l 1
 384 563 l 1
EndSplineSet
Validated: 5
EndChar

StartChar: j
Encoding: 106 106 231
Width: 1024
VWidth: 0
Flags: H
LayerCount: 4
Back
Fore
SplineSet
384 819 m 1
 512 819 l 1
 512 691 l 1
 384 691 l 1
 384 819 l 1
384 563 m 1
 512 563 l 1
 512 -77 l 1
 384 -77 l 1
 384 563 l 1
256 -77 m 1
 384 -77 l 1
 384 -205 l 1
 256 -205 l 1
 256 -77 l 1
EndSplineSet
Validated: 5
EndChar

StartChar: k
Encoding: 107 107 232
Width: 1024
VWidth: 0
Flags: H
LayerCount: 4
Back
Fore
SplineSet
128 819 m 1
 256 819 l 1
 256 307 l 1
 384 307 l 1
 384 435 l 1
 512 435 l 1
 512 179 l 1
 256 179 l 1
 256 -77 l 1
 128 -77 l 1
 128 819 l 1
512 563 m 1
 640 563 l 1
 640 435 l 1
 512 435 l 1
 512 563 l 1
512 179 m 1
 640 179 l 1
 640 51 l 1
 768 51 l 1
 768 -77 l 1
 640 -77 l 1
 640 51 l 1
 512 51 l 1
 512 179 l 1
EndSplineSet
Validated: 5
EndChar

StartChar: l
Encoding: 108 108 233
Width: 1024
VWidth: 0
Flags: H
LayerCount: 4
Back
Fore
SplineSet
384 819 m 1
 512 819 l 1
 512 51 l 1
 384 51 l 1
 384 819 l 1
512 51 m 1
 640 51 l 1
 640 -77 l 1
 512 -77 l 1
 512 51 l 1
EndSplineSet
Validated: 5
EndChar

StartChar: n
Encoding: 110 110 234
Width: 1024
VWidth: 0
Flags: HW
LayerCount: 4
Back
Fore
SplineSet
128 563 m 1
 256 563 l 1
 256 435 l 1
 384 435 l 1
 384 563 l 1
 640 563 l 1
 640 435 l 1
 768 435 l 1
 768 -77 l 1
 640 -77 l 1
 640 435 l 1
 384 435 l 1
 384 307 l 1
 256 307 l 1
 256 -77 l 1
 128 -77 l 1
 128 563 l 1
EndSplineSet
Validated: 5
EndChar

StartChar: m
Encoding: 109 109 235
Width: 1024
VWidth: 0
Flags: H
LayerCount: 4
Back
Fore
SplineSet
128 563 m 1
 384 563 l 1
 384 435 l 1
 512 435 l 1
 512 563 l 1
 640 563 l 1
 640 435 l 1
 768 435 l 1
 768 -77 l 1
 640 -77 l 1
 640 435 l 1
 512 435 l 1
 512 -77 l 1
 384 -77 l 1
 384 435 l 1
 256 435 l 1
 256 -77 l 1
 128 -77 l 1
 128 563 l 1
EndSplineSet
Validated: 5
EndChar

StartChar: o
Encoding: 111 111 236
Width: 1024
VWidth: 0
Flags: HW
LayerCount: 4
Fore
SplineSet
256 435 m 1
 256 51 l 1
 640 51 l 1
 640 435 l 1
 256 435 l 1
256 563 m 1
 640 563 l 1
 640 435 l 1
 768 435 l 1
 768 51 l 1
 640 51 l 1
 640 -77 l 1
 256 -77 l 1
 256 51 l 1
 128 51 l 1
 128 435 l 1
 256 435 l 1
 256 563 l 1
EndSplineSet
Validated: 5
EndChar

StartChar: p
Encoding: 112 112 237
Width: 1024
VWidth: 0
Flags: H
LayerCount: 4
Back
Fore
SplineSet
128 563 m 1
 256 563 l 1
 256 435 l 1
 384 435 l 1
 384 307 l 1
 256 307 l 1
 256 179 l 1
 640 179 l 1
 640 51 l 1
 256 51 l 1
 256 -205 l 1
 128 -205 l 1
 128 563 l 1
384 563 m 1
 640 563 l 1
 640 435 l 1
 768 435 l 1
 768 179 l 1
 640 179 l 1
 640 435 l 1
 384 435 l 1
 384 563 l 1
EndSplineSet
Validated: 5
EndChar

StartChar: q
Encoding: 113 113 238
Width: 1024
VWidth: 0
Flags: H
LayerCount: 4
Back
Fore
SplineSet
256 563 m 1
 512 563 l 1
 512 435 l 1
 256 435 l 1
 256 179 l 1
 128 179 l 1
 128 435 l 1
 256 435 l 1
 256 563 l 1
640 563 m 1
 768 563 l 1
 768 -205 l 1
 640 -205 l 1
 640 51 l 1
 256 51 l 1
 256 179 l 1
 640 179 l 1
 640 307 l 1
 512 307 l 1
 512 435 l 1
 640 435 l 1
 640 563 l 1
EndSplineSet
Validated: 5
EndChar

StartChar: r
Encoding: 114 114 239
Width: 1024
VWidth: 0
Flags: H
LayerCount: 4
Back
Fore
SplineSet
128 563 m 1
 256 563 l 1
 256 435 l 1
 384 435 l 1
 384 563 l 1
 640 563 l 1
 640 435 l 1
 768 435 l 1
 768 307 l 1
 640 307 l 1
 640 435 l 1
 384 435 l 1
 384 307 l 1
 256 307 l 1
 256 -77 l 1
 128 -77 l 1
 128 563 l 1
EndSplineSet
Validated: 5
EndChar

StartChar: s
Encoding: 115 115 240
Width: 1024
VWidth: 0
Flags: H
LayerCount: 4
Back
Fore
SplineSet
256 563 m 1
 640 563 l 1
 640 435 l 1
 256 435 l 1
 256 307 l 1
 640 307 l 1
 640 179 l 1
 768 179 l 1
 768 51 l 1
 640 51 l 1
 640 -77 l 1
 128 -77 l 1
 128 51 l 1
 640 51 l 1
 640 179 l 1
 256 179 l 1
 256 307 l 1
 128 307 l 1
 128 435 l 1
 256 435 l 1
 256 563 l 1
EndSplineSet
Validated: 5
EndChar

StartChar: t
Encoding: 116 116 241
Width: 1024
VWidth: 0
Flags: HW
LayerCount: 4
Fore
SplineSet
384 819 m 1
 512 819 l 1
 512 563 l 1
 640 563 l 1
 640 435 l 1
 512 435 l 1
 512 51 l 1
 384 51 l 1
 384 435 l 1
 256 435 l 1
 256 563 l 1
 384 563 l 1
 384 819 l 1
512 51 m 1
 640 51 l 1
 640 -77 l 1
 512 -77 l 1
 512 51 l 1
EndSplineSet
Validated: 5
EndChar

StartChar: u
Encoding: 117 117 242
Width: 1024
VWidth: 0
Flags: H
LayerCount: 4
Back
Fore
SplineSet
128 563 m 1
 256 563 l 1
 256 51 l 1
 512 51 l 1
 512 179 l 1
 640 179 l 1
 640 563 l 1
 768 563 l 1
 768 -77 l 1
 640 -77 l 1
 640 51 l 1
 512 51 l 1
 512 -77 l 1
 256 -77 l 1
 256 51 l 1
 128 51 l 1
 128 563 l 1
EndSplineSet
Validated: 5
EndChar

StartChar: v
Encoding: 118 118 243
Width: 1024
VWidth: 0
Flags: H
LayerCount: 4
Back
Fore
SplineSet
128 563 m 1
 256 563 l 1
 256 179 l 1
 384 179 l 1
 384 51 l 1
 512 51 l 1
 512 179 l 1
 640 179 l 1
 640 563 l 1
 768 563 l 1
 768 179 l 1
 640 179 l 1
 640 51 l 1
 512 51 l 1
 512 -77 l 1
 384 -77 l 1
 384 51 l 1
 256 51 l 1
 256 179 l 1
 128 179 l 1
 128 563 l 1
EndSplineSet
Validated: 5
EndChar

StartChar: w
Encoding: 119 119 244
Width: 1024
VWidth: 0
Flags: H
LayerCount: 4
Back
Fore
SplineSet
128 563 m 1
 256 563 l 1
 256 51 l 1
 384 51 l 1
 384 563 l 1
 512 563 l 1
 512 51 l 1
 640 51 l 1
 640 563 l 1
 768 563 l 1
 768 51 l 1
 640 51 l 1
 640 -77 l 1
 512 -77 l 1
 512 51 l 1
 384 51 l 1
 384 -77 l 1
 256 -77 l 1
 256 51 l 1
 128 51 l 1
 128 563 l 1
EndSplineSet
Validated: 5
EndChar

StartChar: x
Encoding: 120 120 245
Width: 1024
VWidth: 0
Flags: H
LayerCount: 4
Back
Fore
SplineSet
128 563 m 1
 256 563 l 1
 256 435 l 1
 384 435 l 1
 384 307 l 1
 512 307 l 1
 512 435 l 1
 640 435 l 1
 640 563 l 1
 768 563 l 1
 768 435 l 1
 640 435 l 1
 640 307 l 1
 512 307 l 1
 512 179 l 1
 640 179 l 1
 640 51 l 1
 768 51 l 1
 768 -77 l 1
 640 -77 l 1
 640 51 l 1
 512 51 l 1
 512 179 l 1
 384 179 l 1
 384 51 l 1
 256 51 l 1
 256 -77 l 1
 128 -77 l 1
 128 51 l 1
 256 51 l 1
 256 179 l 1
 384 179 l 1
 384 307 l 1
 256 307 l 1
 256 435 l 1
 128 435 l 1
 128 563 l 1
EndSplineSet
Validated: 5
EndChar

StartChar: y
Encoding: 121 121 246
Width: 1024
VWidth: 0
Flags: H
LayerCount: 4
Back
Fore
SplineSet
128 563 m 1
 256 563 l 1
 256 179 l 1
 640 179 l 1
 640 563 l 1
 768 563 l 1
 768 -77 l 1
 640 -77 l 1
 640 51 l 1
 256 51 l 1
 256 179 l 1
 128 179 l 1
 128 563 l 1
256 -77 m 1
 640 -77 l 1
 640 -205 l 1
 256 -205 l 1
 256 -77 l 1
EndSplineSet
Validated: 5
EndChar

StartChar: z
Encoding: 122 122 247
Width: 1024
VWidth: 0
Flags: H
LayerCount: 4
Back
Fore
SplineSet
128 563 m 1
 768 563 l 1
 768 435 l 1
 640 435 l 1
 640 307 l 1
 512 307 l 1
 512 179 l 1
 384 179 l 1
 384 51 l 1
 768 51 l 1
 768 -77 l 1
 128 -77 l 1
 128 51 l 1
 256 51 l 1
 256 179 l 1
 384 179 l 1
 384 307 l 1
 512 307 l 1
 512 435 l 1
 128 435 l 1
 128 563 l 1
EndSplineSet
Validated: 5
EndChar

StartChar: braceleft
Encoding: 123 123 248
Width: 1024
VWidth: 0
Flags: H
LayerCount: 4
Back
Fore
SplineSet
512 819 m 1
 640 819 l 1
 640 691 l 1
 512 691 l 1
 512 819 l 1
384 691 m 1
 512 691 l 1
 512 435 l 1
 384 435 l 1
 384 307 l 1
 512 307 l 1
 512 51 l 1
 640 51 l 1
 640 -77 l 1
 512 -77 l 1
 512 51 l 1
 384 51 l 1
 384 307 l 1
 256 307 l 1
 256 435 l 1
 384 435 l 1
 384 691 l 1
EndSplineSet
Validated: 5
EndChar

StartChar: bar
Encoding: 124 124 249
Width: 1024
VWidth: 0
Flags: H
LayerCount: 4
Back
Fore
SplineSet
384 819 m 1
 512 819 l 1
 512 -77 l 1
 384 -77 l 1
 384 819 l 1
EndSplineSet
Validated: 1
EndChar

StartChar: braceright
Encoding: 125 125 250
Width: 1024
VWidth: 0
Flags: H
LayerCount: 4
Back
Fore
SplineSet
256 819 m 1
 384 819 l 1
 384 691 l 1
 256 691 l 1
 256 819 l 1
384 691 m 1
 512 691 l 1
 512 435 l 1
 640 435 l 1
 640 307 l 1
 512 307 l 1
 512 51 l 1
 384 51 l 1
 384 -77 l 1
 256 -77 l 1
 256 51 l 1
 384 51 l 1
 384 307 l 1
 512 307 l 1
 512 435 l 1
 384 435 l 1
 384 691 l 1
EndSplineSet
Validated: 5
EndChar

StartChar: asciitilde
Encoding: 126 126 251
Width: 1024
VWidth: 0
Flags: HW
LayerCount: 4
Fore
SplineSet
256 435 m 1
 512 435 l 1
 512 307 l 1
 768 307 l 1
 768 435 l 1
 896 435 l 1
 896 307 l 1
 768 307 l 1
 768 179 l 1
 512 179 l 1
 512 307 l 1
 256 307 l 1
 256 179 l 1
 128 179 l 1
 128 307 l 1
 256 307 l 1
 256 435 l 1
EndSplineSet
Validated: 5
EndChar

StartChar: Adieresis
Encoding: 196 196 252
Width: 1024
VWidth: 0
Flags: H
LayerCount: 4
Back
Fore
SplineSet
256 563 m 1
 256 307 l 1
 640 307 l 1
 640 563 l 1
 256 563 l 1
128 819 m 1
 256 819 l 1
 256 691 l 1
 128 691 l 1
 128 819 l 1
640 819 m 1
 768 819 l 1
 768 691 l 1
 640 691 l 1
 640 819 l 1
256 691 m 1
 640 691 l 1
 640 563 l 1
 768 563 l 1
 768 -77 l 1
 640 -77 l 1
 640 179 l 1
 256 179 l 1
 256 -77 l 1
 128 -77 l 1
 128 563 l 1
 256 563 l 1
 256 691 l 1
EndSplineSet
Validated: 5
EndChar

StartChar: adieresis
Encoding: 228 228 253
Width: 1024
VWidth: 0
Flags: H
LayerCount: 4
Back
Fore
SplineSet
256 435 m 1
 256 51 l 1
 640 51 l 1
 640 307 l 1
 512 307 l 1
 512 435 l 1
 256 435 l 1
256 819 m 1
 384 819 l 1
 384 691 l 1
 256 691 l 1
 256 819 l 1
512 819 m 1
 640 819 l 1
 640 691 l 1
 512 691 l 1
 512 819 l 1
256 563 m 1
 512 563 l 1
 512 435 l 1
 640 435 l 1
 640 563 l 1
 768 563 l 1
 768 51 l 1
 896 51 l 1
 896 -77 l 1
 768 -77 l 1
 768 51 l 1
 640 51 l 1
 640 -77 l 1
 256 -77 l 1
 256 51 l 1
 128 51 l 1
 128 435 l 1
 256 435 l 1
 256 563 l 1
EndSplineSet
Validated: 5
EndChar

StartChar: Odieresis
Encoding: 214 214 254
Width: 1024
VWidth: 0
Flags: H
LayerCount: 4
Back
Fore
SplineSet
256 563 m 1
 256 51 l 1
 640 51 l 1
 640 563 l 1
 256 563 l 1
128 819 m 1
 256 819 l 1
 256 691 l 1
 128 691 l 1
 128 819 l 1
640 819 m 1
 768 819 l 1
 768 691 l 1
 640 691 l 1
 640 819 l 1
256 691 m 1
 640 691 l 1
 640 563 l 1
 768 563 l 1
 768 51 l 1
 640 51 l 1
 640 -77 l 1
 256 -77 l 1
 256 51 l 1
 128 51 l 1
 128 563 l 1
 256 563 l 1
 256 691 l 1
EndSplineSet
Validated: 5
EndChar

StartChar: odieresis
Encoding: 246 246 255
Width: 1024
VWidth: 0
Flags: H
LayerCount: 4
Back
Fore
SplineSet
256 435 m 1
 256 51 l 1
 640 51 l 1
 640 435 l 1
 256 435 l 1
256 819 m 1
 384 819 l 1
 384 691 l 1
 256 691 l 1
 256 819 l 1
512 819 m 1
 640 819 l 1
 640 691 l 1
 512 691 l 1
 512 819 l 1
256 563 m 1
 640 563 l 1
 640 435 l 1
 768 435 l 1
 768 51 l 1
 640 51 l 1
 640 -77 l 1
 256 -77 l 1
 256 51 l 1
 128 51 l 1
 128 435 l 1
 256 435 l 1
 256 563 l 1
EndSplineSet
Validated: 5
EndChar

StartChar: Udieresis
Encoding: 220 220 256
Width: 1024
VWidth: 0
Flags: H
LayerCount: 4
Back
Fore
SplineSet
128 819 m 1
 256 819 l 1
 256 691 l 1
 128 691 l 1
 128 819 l 1
640 819 m 1
 768 819 l 1
 768 691 l 1
 640 691 l 1
 640 819 l 1
128 563 m 1
 256 563 l 1
 256 51 l 1
 640 51 l 1
 640 563 l 1
 768 563 l 1
 768 51 l 1
 640 51 l 1
 640 -77 l 1
 256 -77 l 1
 256 51 l 1
 128 51 l 1
 128 563 l 1
EndSplineSet
Validated: 5
EndChar

StartChar: udieresis
Encoding: 252 252 257
Width: 1024
VWidth: 0
Flags: H
LayerCount: 4
Back
Fore
SplineSet
256 819 m 1
 384 819 l 1
 384 691 l 1
 256 691 l 1
 256 819 l 1
512 819 m 1
 640 819 l 1
 640 691 l 1
 512 691 l 1
 512 819 l 1
128 563 m 1
 256 563 l 1
 256 51 l 1
 512 51 l 1
 512 179 l 1
 640 179 l 1
 640 563 l 1
 768 563 l 1
 768 -77 l 1
 640 -77 l 1
 640 51 l 1
 512 51 l 1
 512 -77 l 1
 256 -77 l 1
 256 51 l 1
 128 51 l 1
 128 563 l 1
EndSplineSet
Validated: 5
EndChar

StartChar: germandbls
Encoding: 223 223 258
Width: 1024
VWidth: 0
Flags: H
LayerCount: 4
Back
Fore
SplineSet
384 819 m 1
 640 819 l 1
 640 691 l 1
 384 691 l 1
 384 819 l 1
256 691 m 1
 384 691 l 1
 384 179 l 1
 512 179 l 1
 512 51 l 1
 640 51 l 1
 640 307 l 1
 512 307 l 1
 512 435 l 1
 640 435 l 1
 640 691 l 1
 768 691 l 1
 768 435 l 1
 640 435 l 1
 640 307 l 1
 768 307 l 1
 768 51 l 1
 640 51 l 1
 640 -77 l 1
 512 -77 l 1
 512 51 l 1
 384 51 l 1
 384 -77 l 1
 256 -77 l 1
 256 691 l 1
EndSplineSet
Validated: 5
EndChar

StartChar: uniF10E
Encoding: 61710 61710 260
Width: 1024
VWidth: 0
Flags: H
LayerCount: 4
Back
Fore
SplineSet
128 -77 m 1
 256 -77 l 1
 256 -205 l 1
 128 -205 l 1
 128 -77 l 1
768 -77 m 1
 896 -77 l 1
 896 -205 l 1
 768 -205 l 1
 768 -77 l 1
384 435 m 1
 384 179 l 1
 640 179 l 1
 640 435 l 1
 384 435 l 1
384 563 m 1
 640 563 l 1
 640 435 l 1
 768 435 l 1
 768 179 l 1
 640 179 l 1
 640 51 l 1
 768 51 l 1
 768 -77 l 1
 640 -77 l 1
 640 51 l 1
 384 51 l 1
 384 -77 l 1
 256 -77 l 1
 256 51 l 1
 384 51 l 1
 384 179 l 1
 256 179 l 1
 256 435 l 1
 384 435 l 1
 384 563 l 1
EndSplineSet
Validated: 5
EndChar

StartChar: uniF10F
Encoding: 61711 61711 261
Width: 1024
VWidth: 0
Flags: H
LayerCount: 4
Back
Fore
SplineSet
128 691 m 1
 128 435 l 1
 896 435 l 1
 896 691 l 1
 768 691 l 1
 768 563 l 1
 640 563 l 1
 640 691 l 1
 384 691 l 1
 384 563 l 1
 256 563 l 1
 256 691 l 1
 128 691 l 1
0 819 m 1
 256 819 l 1
 256 691 l 1
 384 691 l 1
 384 819 l 1
 640 819 l 1
 640 691 l 1
 768 691 l 1
 768 819 l 1
 1024 819 l 1
 1024 307 l 1
 768 307 l 1
 768 -77 l 1
 896 -77 l 1
 896 -205 l 1
 768 -205 l 1
 768 -77 l 1
 640 -77 l 1
 640 307 l 1
 384 307 l 1
 384 -77 l 1
 256 -77 l 1
 256 -205 l 1
 128 -205 l 1
 128 -77 l 1
 256 -77 l 1
 256 307 l 1
 0 307 l 1
 0 819 l 1
EndSplineSet
Validated: 5
EndChar

StartChar: uniF110
Encoding: 61712 61712 262
Width: 1024
VWidth: 0
Flags: H
LayerCount: 4
Back
Fore
SplineSet
512 819 m 1
 640 819 l 1
 640 691 l 1
 512 691 l 1
 512 819 l 1
256 691 m 1
 512 691 l 1
 512 563 l 1
 256 563 l 1
 256 435 l 1
 128 435 l 1
 128 563 l 1
 256 563 l 1
 256 691 l 1
640 691 m 1
 768 691 l 1
 768 563 l 1
 896 563 l 1
 896 435 l 1
 768 435 l 1
 768 563 l 1
 640 563 l 1
 640 691 l 1
0 435 m 1
 128 435 l 1
 128 179 l 1
 0 179 l 1
 0 435 l 1
896 435 m 1
 1024 435 l 1
 1024 -205 l 1
 896 -205 l 1
 896 435 l 1
384 307 m 1
 512 307 l 1
 512 179 l 1
 640 179 l 1
 640 -77 l 1
 512 -77 l 1
 512 179 l 1
 384 179 l 1
 384 51 l 1
 128 51 l 1
 128 179 l 1
 384 179 l 1
 384 307 l 1
256 -77 m 1
 512 -77 l 1
 512 -205 l 1
 256 -205 l 1
 256 -77 l 1
EndSplineSet
Validated: 5
EndChar

StartChar: uniF111
Encoding: 61713 61713 263
Width: 1024
VWidth: 0
Flags: H
LayerCount: 4
Back
Fore
SplineSet
0 563 m 1
 128 563 l 1
 128 435 l 1
 896 435 l 1
 896 563 l 1
 1024 563 l 1
 1024 307 l 1
 0 307 l 1
 0 563 l 1
128 819 m 1
 256 819 l 1
 256 691 l 1
 768 691 l 1
 768 819 l 1
 896 819 l 1
 896 563 l 1
 128 563 l 1
 128 819 l 1
EndSplineSet
Validated: 5
EndChar

StartChar: uniF112
Encoding: 61714 61714 264
Width: 1024
VWidth: 0
Flags: H
LayerCount: 4
Back
Fore
SplineSet
384 819 m 1
 640 819 l 1
 640 691 l 1
 384 691 l 1
 384 819 l 1
256 691 m 1
 384 691 l 1
 384 563 l 1
 256 563 l 1
 256 435 l 1
 128 435 l 1
 128 563 l 1
 256 563 l 1
 256 691 l 1
640 691 m 1
 768 691 l 1
 768 563 l 1
 896 563 l 1
 896 435 l 1
 768 435 l 1
 768 563 l 1
 640 563 l 1
 640 691 l 1
0 435 m 1
 128 435 l 1
 128 51 l 1
 0 51 l 1
 0 435 l 1
384 435 m 1
 640 435 l 1
 640 307 l 1
 768 307 l 1
 768 179 l 1
 640 179 l 1
 640 51 l 1
 384 51 l 1
 384 179 l 1
 256 179 l 1
 256 307 l 1
 384 307 l 1
 384 435 l 1
896 435 m 1
 1024 435 l 1
 1024 51 l 1
 896 51 l 1
 896 435 l 1
128 51 m 1
 256 51 l 1
 256 -77 l 1
 128 -77 l 1
 128 51 l 1
768 51 m 1
 896 51 l 1
 896 -77 l 1
 768 -77 l 1
 768 51 l 1
256 -77 m 1
 384 -77 l 1
 384 -205 l 1
 256 -205 l 1
 256 -77 l 1
640 -77 m 1
 768 -77 l 1
 768 -205 l 1
 640 -205 l 1
 640 -77 l 1
EndSplineSet
Validated: 5
EndChar

StartChar: uniF113
Encoding: 61715 61715 265
Width: 1024
VWidth: 0
Flags: H
LayerCount: 4
Back
Fore
SplineSet
128 819 m 1
 896 819 l 1
 896 563 l 1
 768 563 l 1
 768 691 l 1
 256 691 l 1
 256 563 l 1
 128 563 l 1
 128 819 l 1
0 563 m 1
 128 563 l 1
 128 435 l 1
 384 435 l 1
 384 307 l 1
 0 307 l 1
 0 563 l 1
384 563 m 1
 640 563 l 1
 640 435 l 1
 384 435 l 1
 384 563 l 1
896 563 m 1
 1024 563 l 1
 1024 307 l 1
 640 307 l 1
 640 435 l 1
 896 435 l 1
 896 563 l 1
EndSplineSet
Validated: 5
EndChar

StartChar: uniF114
Encoding: 61716 61716 266
Width: 1024
VWidth: 0
Flags: H
LayerCount: 4
Back
Fore
SplineSet
384 819 m 1
 640 819 l 1
 640 563 l 1
 384 563 l 1
 384 819 l 1
0 691 m 1
 256 691 l 1
 256 435 l 1
 0 435 l 1
 0 691 l 1
768 691 m 1
 1024 691 l 1
 1024 435 l 1
 768 435 l 1
 768 691 l 1
384 435 m 1
 640 435 l 1
 640 179 l 1
 384 179 l 1
 384 435 l 1
0 307 m 1
 128 307 l 1
 128 179 l 1
 384 179 l 1
 384 51 l 1
 128 51 l 1
 128 -77 l 1
 0 -77 l 1
 0 307 l 1
896 307 m 1
 1024 307 l 1
 1024 -77 l 1
 896 -77 l 1
 896 51 l 1
 640 51 l 1
 640 179 l 1
 896 179 l 1
 896 307 l 1
128 -77 m 1
 256 -77 l 1
 256 -205 l 1
 128 -205 l 1
 128 -77 l 1
768 -77 m 1
 896 -77 l 1
 896 -205 l 1
 768 -205 l 1
 768 -77 l 1
EndSplineSet
Validated: 5
EndChar

StartChar: uniF115
Encoding: 61717 61717 267
Width: 1024
VWidth: 0
Flags: H
LayerCount: 4
Back
Fore
SplineSet
384 819 m 1
 640 819 l 1
 640 691 l 1
 384 691 l 1
 384 819 l 1
256 691 m 1
 384 691 l 1
 384 563 l 1
 640 563 l 1
 640 691 l 1
 768 691 l 1
 768 563 l 1
 640 563 l 1
 640 435 l 1
 384 435 l 1
 384 563 l 1
 256 563 l 1
 256 691 l 1
0 435 m 1
 256 435 l 1
 256 307 l 1
 128 307 l 1
 128 -77 l 1
 0 -77 l 1
 0 435 l 1
768 435 m 1
 1024 435 l 1
 1024 -77 l 1
 896 -77 l 1
 896 307 l 1
 768 307 l 1
 768 435 l 1
256 307 m 1
 768 307 l 1
 768 179 l 1
 256 179 l 1
 256 307 l 1
128 -77 m 1
 256 -77 l 1
 256 -205 l 1
 128 -205 l 1
 128 -77 l 1
768 -77 m 1
 896 -77 l 1
 896 -205 l 1
 768 -205 l 1
 768 -77 l 1
EndSplineSet
Validated: 5
EndChar

StartChar: uniF116
Encoding: 61718 61718 268
Width: 1024
VWidth: 0
Flags: H
LayerCount: 4
Back
Fore
SplineSet
0 563 m 1
 128 563 l 1
 128 435 l 1
 896 435 l 1
 896 563 l 1
 1024 563 l 1
 1024 307 l 1
 0 307 l 1
 0 563 l 1
256 819 m 1
 384 819 l 1
 384 691 l 1
 640 691 l 1
 640 819 l 1
 768 819 l 1
 768 691 l 1
 896 691 l 1
 896 563 l 1
 128 563 l 1
 128 691 l 1
 256 691 l 1
 256 819 l 1
EndSplineSet
Validated: 5
EndChar

StartChar: uniF117
Encoding: 61719 61719 269
Width: 1024
VWidth: 0
Flags: H
LayerCount: 4
Back
Fore
SplineSet
384 563 m 1
 640 563 l 1
 640 435 l 1
 768 435 l 1
 768 179 l 1
 640 179 l 1
 640 51 l 1
 768 51 l 1
 768 -77 l 1
 896 -77 l 1
 896 -205 l 1
 128 -205 l 1
 128 -77 l 1
 256 -77 l 1
 256 51 l 1
 384 51 l 1
 384 179 l 1
 256 179 l 1
 256 435 l 1
 384 435 l 1
 384 563 l 1
EndSplineSet
Validated: 1
EndChar

StartChar: uniF118
Encoding: 61720 61720 270
Width: 1024
VWidth: 0
Flags: H
LayerCount: 4
Back
Fore
SplineSet
0 819 m 1
 256 819 l 1
 256 691 l 1
 384 691 l 1
 384 819 l 1
 640 819 l 1
 640 691 l 1
 768 691 l 1
 768 819 l 1
 1024 819 l 1
 1024 307 l 1
 768 307 l 1
 768 -77 l 1
 896 -77 l 1
 896 -205 l 1
 128 -205 l 1
 128 -77 l 1
 256 -77 l 1
 256 307 l 1
 0 307 l 1
 0 819 l 1
EndSplineSet
Validated: 1
EndChar

StartChar: uniF119
Encoding: 61721 61721 271
Width: 1024
VWidth: 0
Flags: H
LayerCount: 4
Back
Fore
SplineSet
512 819 m 1
 640 819 l 1
 640 691 l 1
 768 691 l 1
 768 563 l 1
 896 563 l 1
 896 435 l 1
 1024 435 l 1
 1024 -205 l 1
 256 -205 l 1
 256 -77 l 1
 512 -77 l 1
 512 179 l 1
 384 179 l 1
 384 51 l 1
 128 51 l 1
 128 179 l 1
 0 179 l 1
 0 435 l 1
 128 435 l 1
 128 563 l 1
 256 563 l 1
 256 691 l 1
 512 691 l 1
 512 819 l 1
EndSplineSet
Validated: 1
EndChar

StartChar: uniF11A
Encoding: 61722 61722 272
Width: 1024
VWidth: 0
Flags: H
LayerCount: 4
Back
Fore
SplineSet
128 819 m 1
 896 819 l 1
 896 563 l 1
 1024 563 l 1
 1024 307 l 1
 0 307 l 1
 0 563 l 1
 128 563 l 1
 128 819 l 1
EndSplineSet
Validated: 1
EndChar

StartChar: uniF11B
Encoding: 61723 61723 273
Width: 1024
VWidth: 0
Flags: H
LayerCount: 4
Back
Fore
SplineSet
384 435 m 1
 384 307 l 1
 256 307 l 1
 256 179 l 1
 384 179 l 1
 384 51 l 1
 640 51 l 1
 640 179 l 1
 768 179 l 1
 768 307 l 1
 640 307 l 1
 640 435 l 1
 384 435 l 1
384 819 m 1
 640 819 l 1
 640 691 l 1
 768 691 l 1
 768 563 l 1
 896 563 l 1
 896 435 l 1
 1024 435 l 1
 1024 51 l 1
 896 51 l 1
 896 -77 l 1
 768 -77 l 1
 768 -205 l 1
 256 -205 l 1
 256 -77 l 1
 128 -77 l 1
 128 51 l 1
 0 51 l 1
 0 435 l 1
 128 435 l 1
 128 563 l 1
 256 563 l 1
 256 691 l 1
 384 691 l 1
 384 819 l 1
EndSplineSet
Validated: 1
EndChar

StartChar: uniF11C
Encoding: 61724 61724 274
Width: 1024
VWidth: 0
Flags: H
LayerCount: 4
Back
Fore
SplineSet
128 819 m 1
 896 819 l 1
 896 563 l 1
 1024 563 l 1
 1024 307 l 1
 640 307 l 1
 640 435 l 1
 384 435 l 1
 384 307 l 1
 0 307 l 1
 0 563 l 1
 128 563 l 1
 128 819 l 1
EndSplineSet
Validated: 1
EndChar

StartChar: uniF11D
Encoding: 61725 61725 275
Width: 1024
VWidth: 0
Flags: H
LayerCount: 4
Back
Fore
SplineSet
384 819 m 1
 640 819 l 1
 640 563 l 1
 384 563 l 1
 384 819 l 1
0 691 m 1
 256 691 l 1
 256 435 l 1
 0 435 l 1
 0 691 l 1
768 691 m 1
 1024 691 l 1
 1024 435 l 1
 768 435 l 1
 768 691 l 1
384 435 m 1
 640 435 l 1
 640 179 l 1
 896 179 l 1
 896 307 l 1
 1024 307 l 1
 1024 -77 l 1
 896 -77 l 1
 896 -205 l 1
 128 -205 l 1
 128 -77 l 1
 0 -77 l 1
 0 307 l 1
 128 307 l 1
 128 179 l 1
 384 179 l 1
 384 435 l 1
EndSplineSet
Validated: 1
EndChar

StartChar: uniF11F
Encoding: 61727 61727 276
Width: 1024
VWidth: 0
Flags: H
LayerCount: 4
Back
Fore
SplineSet
256 819 m 1
 768 819 l 1
 768 563 l 1
 1024 563 l 1
 1024 307 l 1
 0 307 l 1
 0 563 l 1
 256 563 l 1
 256 819 l 1
EndSplineSet
Validated: 1
EndChar

StartChar: uniF11E
Encoding: 61726 61726 277
Width: 1024
VWidth: 0
Flags: H
LayerCount: 4
Back
Fore
SplineSet
384 819 m 1
 640 819 l 1
 640 691 l 1
 768 691 l 1
 768 563 l 1
 640 563 l 1
 640 435 l 1
 384 435 l 1
 384 563 l 1
 256 563 l 1
 256 691 l 1
 384 691 l 1
 384 819 l 1
0 435 m 1
 256 435 l 1
 256 307 l 1
 768 307 l 1
 768 435 l 1
 1024 435 l 1
 1024 -77 l 1
 896 -77 l 1
 896 -205 l 1
 128 -205 l 1
 128 -77 l 1
 0 -77 l 1
 0 435 l 1
EndSplineSet
Validated: 1
EndChar

StartChar: uniF120
Encoding: 61728 61728 278
Width: 1024
VWidth: 0
Flags: H
LayerCount: 4
Back
Fore
SplineSet
640 563 m 1
 640 51 l 1
 768 51 l 1
 768 563 l 1
 640 563 l 1
128 691 m 1
 256 691 l 1
 256 563 l 1
 384 563 l 1
 384 51 l 1
 256 51 l 1
 256 -77 l 1
 128 -77 l 1
 128 51 l 1
 256 51 l 1
 256 563 l 1
 128 563 l 1
 128 691 l 1
640 691 m 1
 768 691 l 1
 768 563 l 1
 896 563 l 1
 896 51 l 1
 768 51 l 1
 768 -77 l 1
 640 -77 l 1
 640 51 l 1
 512 51 l 1
 512 563 l 1
 640 563 l 1
 640 691 l 1
0 563 m 1
 128 563 l 1
 128 51 l 1
 0 51 l 1
 0 563 l 1
EndSplineSet
Validated: 5
EndChar

StartChar: uniF121
Encoding: 61729 61729 279
Width: 1024
VWidth: 0
Flags: H
LayerCount: 4
Back
Fore
SplineSet
512 435 m 1
 512 307 l 1
 768 307 l 1
 768 435 l 1
 512 435 l 1
128 819 m 1
 256 819 l 1
 256 691 l 1
 128 691 l 1
 128 819 l 1
0 691 m 1
 128 691 l 1
 128 563 l 1
 0 563 l 1
 0 691 l 1
256 691 m 1
 384 691 l 1
 384 563 l 1
 256 563 l 1
 256 691 l 1
512 563 m 1
 768 563 l 1
 768 435 l 1
 896 435 l 1
 896 -77 l 1
 768 -77 l 1
 768 179 l 1
 512 179 l 1
 512 -77 l 1
 384 -77 l 1
 384 435 l 1
 512 435 l 1
 512 563 l 1
EndSplineSet
Validated: 5
EndChar

StartChar: uniF122
Encoding: 61730 61730 280
Width: 1024
VWidth: 0
Flags: H
LayerCount: 4
Back
Fore
SplineSet
512 435 m 5
 512 307 l 5
 768 307 l 5
 768 435 l 5
 512 435 l 5
512 179 m 5
 512 51 l 5
 768 51 l 5
 768 179 l 5
 512 179 l 5
128 819 m 5
 256 819 l 5
 256 691 l 5
 128 691 l 5
 128 819 l 5
0 691 m 5
 128 691 l 5
 128 563 l 5
 0 563 l 5
 0 691 l 5
256 691 m 5
 384 691 l 5
 384 563 l 5
 768 563 l 5
 768 435 l 5
 896 435 l 5
 896 307 l 5
 768 307 l 5
 768 179 l 5
 896 179 l 5
 896 51 l 5
 768 51 l 5
 768 -77 l 5
 384 -77 l 5
 384 563 l 5
 256 563 l 5
 256 691 l 5
EndSplineSet
Validated: 5
EndChar

StartChar: uniF123
Encoding: 61731 61731 281
Width: 1024
VWidth: 0
Flags: H
LayerCount: 4
Back
Fore
SplineSet
128 819 m 1
 256 819 l 1
 256 691 l 1
 128 691 l 1
 128 819 l 1
0 691 m 1
 128 691 l 1
 128 563 l 1
 0 563 l 1
 0 691 l 1
256 691 m 1
 384 691 l 1
 384 563 l 1
 256 563 l 1
 256 691 l 1
512 563 m 1
 768 563 l 1
 768 435 l 1
 896 435 l 1
 896 307 l 1
 768 307 l 1
 768 435 l 1
 512 435 l 1
 512 51 l 1
 768 51 l 1
 768 179 l 1
 896 179 l 1
 896 51 l 1
 768 51 l 1
 768 -77 l 1
 512 -77 l 1
 512 51 l 1
 384 51 l 1
 384 435 l 1
 512 435 l 1
 512 563 l 1
EndSplineSet
Validated: 5
EndChar

StartChar: uniF124
Encoding: 61732 61732 282
Width: 1024
VWidth: 0
Flags: H
LayerCount: 4
Back
Fore
SplineSet
512 435 m 1
 512 51 l 1
 768 51 l 1
 768 435 l 1
 512 435 l 1
128 819 m 1
 256 819 l 1
 256 691 l 1
 128 691 l 1
 128 819 l 1
0 691 m 1
 128 691 l 1
 128 563 l 1
 0 563 l 1
 0 691 l 1
256 691 m 1
 384 691 l 1
 384 563 l 1
 768 563 l 1
 768 435 l 1
 896 435 l 1
 896 51 l 1
 768 51 l 1
 768 -77 l 1
 384 -77 l 1
 384 563 l 1
 256 563 l 1
 256 691 l 1
EndSplineSet
Validated: 5
EndChar

StartChar: uniF125
Encoding: 61733 61733 283
Width: 1024
VWidth: 0
Flags: H
LayerCount: 4
Back
Fore
SplineSet
128 819 m 1
 256 819 l 1
 256 691 l 1
 128 691 l 1
 128 819 l 1
0 691 m 1
 128 691 l 1
 128 563 l 1
 0 563 l 1
 0 691 l 1
256 691 m 1
 384 691 l 1
 384 563 l 1
 896 563 l 1
 896 435 l 1
 512 435 l 1
 512 307 l 1
 768 307 l 1
 768 179 l 1
 512 179 l 1
 512 51 l 1
 896 51 l 1
 896 -77 l 1
 384 -77 l 1
 384 563 l 1
 256 563 l 1
 256 691 l 1
EndSplineSet
Validated: 5
EndChar

StartChar: uniF126
Encoding: 61734 61734 284
Width: 1024
VWidth: 0
Flags: H
LayerCount: 4
Back
Fore
SplineSet
128 819 m 1
 256 819 l 1
 256 691 l 1
 128 691 l 1
 128 819 l 1
0 691 m 1
 128 691 l 1
 128 563 l 1
 0 563 l 1
 0 691 l 1
256 691 m 1
 384 691 l 1
 384 563 l 1
 896 563 l 1
 896 435 l 1
 512 435 l 1
 512 307 l 1
 768 307 l 1
 768 179 l 1
 512 179 l 1
 512 -77 l 1
 384 -77 l 1
 384 563 l 1
 256 563 l 1
 256 691 l 1
EndSplineSet
Validated: 5
EndChar

StartChar: uniF127
Encoding: 61735 61735 285
Width: 1024
VWidth: 0
Flags: H
LayerCount: 4
Back
Fore
SplineSet
128 819 m 1
 256 819 l 1
 256 691 l 1
 128 691 l 1
 128 819 l 1
0 691 m 1
 128 691 l 1
 128 563 l 1
 0 563 l 1
 0 691 l 1
256 691 m 1
 384 691 l 1
 384 563 l 1
 256 563 l 1
 256 691 l 1
512 563 m 1
 768 563 l 1
 768 435 l 1
 896 435 l 1
 896 307 l 1
 768 307 l 1
 768 435 l 1
 512 435 l 1
 512 51 l 1
 640 51 l 1
 640 179 l 1
 896 179 l 1
 896 -77 l 1
 512 -77 l 1
 512 51 l 1
 384 51 l 1
 384 435 l 1
 512 435 l 1
 512 563 l 1
EndSplineSet
Validated: 5
EndChar

StartChar: uniF128
Encoding: 61736 61736 286
Width: 1024
VWidth: 0
Flags: H
LayerCount: 4
Back
Fore
SplineSet
128 819 m 1
 256 819 l 1
 256 691 l 1
 128 691 l 1
 128 819 l 1
0 691 m 1
 128 691 l 1
 128 563 l 1
 0 563 l 1
 0 691 l 1
256 691 m 1
 384 691 l 1
 384 563 l 1
 512 563 l 1
 512 307 l 1
 768 307 l 1
 768 563 l 1
 896 563 l 1
 896 -77 l 1
 768 -77 l 1
 768 179 l 1
 512 179 l 1
 512 -77 l 1
 384 -77 l 1
 384 563 l 1
 256 563 l 1
 256 691 l 1
EndSplineSet
Validated: 5
EndChar

StartChar: uniF129
Encoding: 61737 61737 287
Width: 1024
VWidth: 0
Flags: H
LayerCount: 4
Back
Fore
SplineSet
128 819 m 1
 256 819 l 1
 256 691 l 1
 128 691 l 1
 128 819 l 1
0 691 m 1
 128 691 l 1
 128 563 l 1
 0 563 l 1
 0 691 l 1
256 691 m 1
 384 691 l 1
 384 563 l 1
 256 563 l 1
 256 691 l 1
512 563 m 1
 896 563 l 1
 896 435 l 1
 768 435 l 1
 768 51 l 1
 896 51 l 1
 896 -77 l 1
 512 -77 l 1
 512 51 l 1
 640 51 l 1
 640 435 l 1
 512 435 l 1
 512 563 l 1
EndSplineSet
Validated: 5
EndChar

StartChar: uniF12A
Encoding: 61738 61738 288
Width: 1024
VWidth: 0
Flags: H
LayerCount: 4
Back
Fore
SplineSet
0 563 m 1
 128 563 l 1
 128 51 l 1
 384 51 l 1
 384 -77 l 1
 0 -77 l 1
 0 563 l 1
512 563 m 1
 896 563 l 1
 896 435 l 1
 640 435 l 1
 640 307 l 1
 768 307 l 1
 768 179 l 1
 640 179 l 1
 640 -77 l 1
 512 -77 l 1
 512 563 l 1
EndSplineSet
Validated: 1
EndChar

StartChar: uniF12B
Encoding: 61739 61739 289
Width: 1024
VWidth: 0
Flags: H
LayerCount: 4
Back
Fore
SplineSet
128 819 m 1
 256 819 l 1
 256 691 l 1
 128 691 l 1
 128 819 l 1
0 691 m 1
 128 691 l 1
 128 563 l 1
 0 563 l 1
 0 691 l 1
256 691 m 1
 384 691 l 1
 384 563 l 1
 512 563 l 1
 512 307 l 1
 640 307 l 1
 640 435 l 1
 768 435 l 1
 768 563 l 1
 896 563 l 1
 896 435 l 1
 768 435 l 1
 768 307 l 1
 640 307 l 1
 640 179 l 1
 768 179 l 1
 768 51 l 1
 896 51 l 1
 896 -77 l 1
 768 -77 l 1
 768 51 l 1
 640 51 l 1
 640 179 l 1
 512 179 l 1
 512 -77 l 1
 384 -77 l 1
 384 563 l 1
 256 563 l 1
 256 691 l 1
EndSplineSet
Validated: 5
EndChar

StartChar: uniF12C
Encoding: 61740 61740 290
Width: 1024
VWidth: 0
Flags: H
LayerCount: 4
Back
Fore
SplineSet
128 819 m 1
 256 819 l 1
 256 691 l 1
 128 691 l 1
 128 819 l 1
0 691 m 1
 128 691 l 1
 128 563 l 1
 0 563 l 1
 0 691 l 1
256 691 m 1
 384 691 l 1
 384 563 l 1
 512 563 l 1
 512 51 l 1
 896 51 l 1
 896 -77 l 1
 384 -77 l 1
 384 563 l 1
 256 563 l 1
 256 691 l 1
EndSplineSet
Validated: 5
EndChar

StartChar: uniF12D
Encoding: 61741 61741 291
Width: 1024
VWidth: 0
Flags: H
LayerCount: 4
Back
Fore
SplineSet
128 51 m 1
 384 51 l 1
 384 -77 l 1
 128 -77 l 1
 128 51 l 1
640 435 m 1
 640 307 l 1
 768 307 l 1
 768 435 l 1
 640 435 l 1
128 563 m 1
 384 563 l 1
 384 435 l 1
 128 435 l 1
 128 563 l 1
512 563 m 1
 768 563 l 1
 768 435 l 1
 896 435 l 1
 896 307 l 1
 768 307 l 1
 768 179 l 1
 896 179 l 1
 896 -77 l 1
 768 -77 l 1
 768 179 l 1
 640 179 l 1
 640 -77 l 1
 512 -77 l 1
 512 563 l 1
0 435 m 1
 128 435 l 1
 128 51 l 1
 0 51 l 1
 0 435 l 1
EndSplineSet
Validated: 5
EndChar

StartChar: uniF12E
Encoding: 61742 61742 292
Width: 1024
VWidth: 0
Flags: H
LayerCount: 4
Back
Fore
SplineSet
128 819 m 1
 256 819 l 1
 256 691 l 1
 128 691 l 1
 128 819 l 1
0 691 m 1
 128 691 l 1
 128 563 l 1
 0 563 l 1
 0 691 l 1
256 691 m 1
 384 691 l 1
 384 563 l 1
 512 563 l 1
 512 435 l 1
 640 435 l 1
 640 307 l 1
 768 307 l 1
 768 563 l 1
 896 563 l 1
 896 -77 l 1
 768 -77 l 1
 768 179 l 1
 640 179 l 1
 640 307 l 1
 512 307 l 1
 512 -77 l 1
 384 -77 l 1
 384 563 l 1
 256 563 l 1
 256 691 l 1
EndSplineSet
Validated: 5
EndChar

StartChar: uniF12F
Encoding: 61743 61743 293
Width: 1024
VWidth: 0
Flags: H
LayerCount: 4
Back
Fore
SplineSet
512 435 m 1
 512 51 l 1
 768 51 l 1
 768 435 l 1
 512 435 l 1
128 819 m 1
 256 819 l 1
 256 691 l 1
 128 691 l 1
 128 819 l 1
0 691 m 1
 128 691 l 1
 128 563 l 1
 0 563 l 1
 0 691 l 1
256 691 m 1
 384 691 l 1
 384 563 l 1
 256 563 l 1
 256 691 l 1
512 563 m 1
 768 563 l 1
 768 435 l 1
 896 435 l 1
 896 51 l 1
 768 51 l 1
 768 -77 l 1
 512 -77 l 1
 512 51 l 1
 384 51 l 1
 384 435 l 1
 512 435 l 1
 512 563 l 1
EndSplineSet
Validated: 5
EndChar

StartChar: uniF130
Encoding: 61744 61744 294
Width: 1024
VWidth: 0
Flags: H
LayerCount: 4
Back
Fore
SplineSet
512 435 m 1
 512 307 l 1
 768 307 l 1
 768 435 l 1
 512 435 l 1
128 819 m 1
 256 819 l 1
 256 691 l 1
 128 691 l 1
 128 819 l 1
0 691 m 1
 128 691 l 1
 128 563 l 1
 0 563 l 1
 0 691 l 1
256 691 m 1
 384 691 l 1
 384 563 l 1
 768 563 l 1
 768 435 l 1
 896 435 l 1
 896 307 l 1
 768 307 l 1
 768 179 l 1
 512 179 l 1
 512 -77 l 1
 384 -77 l 1
 384 563 l 1
 256 563 l 1
 256 691 l 1
EndSplineSet
Validated: 5
EndChar

StartChar: uniF131
Encoding: 61745 61745 295
Width: 1024
VWidth: 0
Flags: H
LayerCount: 4
Back
Fore
SplineSet
512 435 m 1
 512 51 l 1
 640 51 l 1
 640 179 l 1
 768 179 l 1
 768 435 l 1
 512 435 l 1
128 819 m 1
 256 819 l 1
 256 691 l 1
 128 691 l 1
 128 819 l 1
0 691 m 1
 128 691 l 1
 128 563 l 1
 0 563 l 1
 0 691 l 1
256 691 m 1
 384 691 l 1
 384 563 l 1
 256 563 l 1
 256 691 l 1
512 563 m 1
 768 563 l 1
 768 435 l 1
 896 435 l 1
 896 179 l 1
 768 179 l 1
 768 51 l 1
 896 51 l 1
 896 -77 l 1
 768 -77 l 1
 768 51 l 1
 640 51 l 1
 640 -77 l 1
 512 -77 l 1
 512 51 l 1
 384 51 l 1
 384 435 l 1
 512 435 l 1
 512 563 l 1
EndSplineSet
Validated: 5
EndChar

StartChar: uniF132
Encoding: 61746 61746 296
Width: 1024
VWidth: 0
Flags: H
LayerCount: 4
Back
Fore
SplineSet
512 435 m 1
 512 307 l 1
 768 307 l 1
 768 435 l 1
 512 435 l 1
128 819 m 1
 256 819 l 1
 256 691 l 1
 128 691 l 1
 128 819 l 1
0 691 m 1
 128 691 l 1
 128 563 l 1
 0 563 l 1
 0 691 l 1
256 691 m 1
 384 691 l 1
 384 563 l 1
 768 563 l 1
 768 435 l 1
 896 435 l 1
 896 307 l 1
 768 307 l 1
 768 51 l 1
 896 51 l 1
 896 -77 l 1
 768 -77 l 1
 768 51 l 1
 640 51 l 1
 640 179 l 1
 512 179 l 1
 512 -77 l 1
 384 -77 l 1
 384 563 l 1
 256 563 l 1
 256 691 l 1
EndSplineSet
Validated: 5
EndChar

StartChar: uniF133
Encoding: 61747 61747 297
Width: 1024
VWidth: 0
Flags: H
LayerCount: 4
Back
Fore
SplineSet
128 819 m 1
 256 819 l 1
 256 691 l 1
 128 691 l 1
 128 819 l 1
0 691 m 1
 128 691 l 1
 128 563 l 1
 0 563 l 1
 0 691 l 1
256 691 m 1
 384 691 l 1
 384 563 l 1
 256 563 l 1
 256 691 l 1
512 563 m 1
 896 563 l 1
 896 435 l 1
 512 435 l 1
 512 307 l 1
 768 307 l 1
 768 179 l 1
 896 179 l 1
 896 51 l 1
 768 51 l 1
 768 -77 l 1
 384 -77 l 1
 384 51 l 1
 768 51 l 1
 768 179 l 1
 512 179 l 1
 512 307 l 1
 384 307 l 1
 384 435 l 1
 512 435 l 1
 512 563 l 1
EndSplineSet
Validated: 5
EndChar

StartChar: uniF136
Encoding: 61750 61750 298
Width: 1024
VWidth: 0
Flags: H
LayerCount: 4
Back
Fore
SplineSet
128 819 m 1
 256 819 l 1
 256 691 l 1
 128 691 l 1
 128 819 l 1
0 691 m 1
 128 691 l 1
 128 563 l 1
 0 563 l 1
 0 691 l 1
256 691 m 1
 384 691 l 1
 384 563 l 1
 512 563 l 1
 512 179 l 1
 640 179 l 1
 640 51 l 1
 768 51 l 1
 768 179 l 1
 896 179 l 1
 896 51 l 1
 768 51 l 1
 768 -77 l 1
 640 -77 l 1
 640 51 l 1
 512 51 l 1
 512 179 l 1
 384 179 l 1
 384 563 l 1
 256 563 l 1
 256 691 l 1
896 563 m 1
 1024 563 l 1
 1024 179 l 1
 896 179 l 1
 896 563 l 1
EndSplineSet
Validated: 5
EndChar

StartChar: uniF137
Encoding: 61751 61751 299
Width: 1024
VWidth: 0
Flags: H
LayerCount: 4
Back
Fore
SplineSet
128 819 m 1
 256 819 l 1
 256 691 l 1
 128 691 l 1
 128 819 l 1
0 691 m 1
 128 691 l 1
 128 563 l 1
 0 563 l 1
 0 691 l 1
256 691 m 1
 384 691 l 1
 384 563 l 1
 512 563 l 1
 512 179 l 1
 640 179 l 1
 640 435 l 1
 768 435 l 1
 768 179 l 1
 640 179 l 1
 640 51 l 1
 512 51 l 1
 512 -77 l 1
 384 -77 l 1
 384 563 l 1
 256 563 l 1
 256 691 l 1
896 563 m 1
 1024 563 l 1
 1024 -77 l 1
 896 -77 l 1
 896 51 l 1
 768 51 l 1
 768 179 l 1
 896 179 l 1
 896 563 l 1
EndSplineSet
Validated: 5
EndChar

StartChar: uniF138
Encoding: 61752 61752 300
Width: 1024
VWidth: 0
Flags: H
LayerCount: 4
Back
Fore
SplineSet
128 819 m 1
 256 819 l 1
 256 691 l 1
 128 691 l 1
 128 819 l 1
0 691 m 1
 128 691 l 1
 128 563 l 1
 0 563 l 1
 0 691 l 1
256 691 m 1
 384 691 l 1
 384 563 l 1
 512 563 l 1
 512 435 l 1
 640 435 l 1
 640 307 l 1
 768 307 l 1
 768 435 l 1
 896 435 l 1
 896 307 l 1
 768 307 l 1
 768 179 l 1
 896 179 l 1
 896 51 l 1
 768 51 l 1
 768 179 l 1
 640 179 l 1
 640 51 l 1
 512 51 l 1
 512 -77 l 1
 384 -77 l 1
 384 51 l 1
 512 51 l 1
 512 179 l 1
 640 179 l 1
 640 307 l 1
 512 307 l 1
 512 435 l 1
 384 435 l 1
 384 563 l 1
 256 563 l 1
 256 691 l 1
896 563 m 1
 1024 563 l 1
 1024 435 l 1
 896 435 l 1
 896 563 l 1
896 51 m 1
 1024 51 l 1
 1024 -77 l 1
 896 -77 l 1
 896 51 l 1
EndSplineSet
Validated: 5
EndChar

StartChar: uniF139
Encoding: 61753 61753 301
Width: 1024
VWidth: 0
Flags: H
LayerCount: 4
Back
Fore
SplineSet
128 819 m 1
 256 819 l 1
 256 691 l 1
 128 691 l 1
 128 819 l 1
0 691 m 1
 128 691 l 1
 128 563 l 1
 0 563 l 1
 0 691 l 1
256 691 m 1
 384 691 l 1
 384 563 l 1
 512 563 l 1
 512 307 l 1
 640 307 l 1
 640 179 l 1
 768 179 l 1
 768 307 l 1
 896 307 l 1
 896 179 l 1
 768 179 l 1
 768 -77 l 1
 640 -77 l 1
 640 179 l 1
 512 179 l 1
 512 307 l 1
 384 307 l 1
 384 563 l 1
 256 563 l 1
 256 691 l 1
896 563 m 1
 1024 563 l 1
 1024 307 l 1
 896 307 l 1
 896 563 l 1
EndSplineSet
Validated: 5
EndChar

StartChar: uniF13A
Encoding: 61754 61754 302
Width: 1024
VWidth: 0
Flags: H
LayerCount: 4
Back
Fore
SplineSet
128 819 m 1
 256 819 l 1
 256 691 l 1
 128 691 l 1
 128 819 l 1
0 691 m 1
 128 691 l 1
 128 563 l 1
 0 563 l 1
 0 691 l 1
256 691 m 1
 384 691 l 1
 384 563 l 1
 896 563 l 1
 896 307 l 1
 768 307 l 1
 768 179 l 1
 640 179 l 1
 640 51 l 1
 896 51 l 1
 896 -77 l 1
 384 -77 l 1
 384 51 l 1
 512 51 l 1
 512 179 l 1
 640 179 l 1
 640 307 l 1
 768 307 l 1
 768 435 l 1
 384 435 l 1
 384 563 l 1
 256 563 l 1
 256 691 l 1
EndSplineSet
Validated: 5
EndChar

StartChar: uniF13B
Encoding: 61755 61755 303
Width: 1024
VWidth: 0
Flags: H
LayerCount: 4
Back
Fore
SplineSet
128 819 m 1
 256 819 l 1
 256 691 l 1
 128 691 l 1
 128 819 l 1
0 691 m 1
 128 691 l 1
 128 563 l 1
 0 563 l 1
 0 691 l 1
256 691 m 1
 384 691 l 1
 384 563 l 1
 256 563 l 1
 256 691 l 1
512 563 m 1
 768 563 l 1
 768 435 l 1
 640 435 l 1
 640 51 l 1
 768 51 l 1
 768 -77 l 1
 512 -77 l 1
 512 563 l 1
EndSplineSet
Validated: 5
EndChar

StartChar: uniF13C
Encoding: 61756 61756 304
Width: 1024
VWidth: 0
Flags: H
LayerCount: 4
Back
Fore
SplineSet
128 819 m 1
 256 819 l 1
 256 691 l 1
 128 691 l 1
 128 819 l 1
512 819 m 1
 640 819 l 1
 640 467 l 1
 512 467 l 1
 512 819 l 1
0 691 m 1
 128 691 l 1
 128 563 l 1
 0 563 l 1
 0 691 l 1
256 691 m 1
 384 691 l 1
 384 563 l 1
 256 563 l 1
 256 691 l 1
512 275 m 1
 640 275 l 1
 640 -77 l 1
 512 -77 l 1
 512 275 l 1
EndSplineSet
Validated: 5
EndChar

StartChar: uniF13D
Encoding: 61757 61757 305
Width: 1024
VWidth: 0
Flags: H
LayerCount: 4
Back
Fore
SplineSet
128 819 m 1
 256 819 l 1
 256 691 l 1
 128 691 l 1
 128 819 l 1
0 691 m 1
 128 691 l 1
 128 563 l 1
 0 563 l 1
 0 691 l 1
256 691 m 1
 384 691 l 1
 384 563 l 1
 256 563 l 1
 256 691 l 1
512 563 m 1
 768 563 l 1
 768 -77 l 1
 512 -77 l 1
 512 51 l 1
 640 51 l 1
 640 435 l 1
 512 435 l 1
 512 563 l 1
EndSplineSet
Validated: 5
EndChar

StartChar: uniF13E
Encoding: 61758 61758 306
Width: 1024
VWidth: 0
Flags: H
LayerCount: 4
Back
Fore
SplineSet
0 563 m 1
 128 563 l 1
 128 435 l 1
 256 435 l 1
 256 307 l 1
 128 307 l 1
 128 -77 l 1
 0 -77 l 1
 0 563 l 1
384 563 m 1
 512 563 l 1
 512 -77 l 1
 384 -77 l 1
 384 179 l 1
 256 179 l 1
 256 307 l 1
 384 307 l 1
 384 563 l 1
640 563 m 1
 768 563 l 1
 768 51 l 1
 896 51 l 1
 896 -77 l 1
 640 -77 l 1
 640 563 l 1
EndSplineSet
Validated: 5
EndChar

StartChar: uniF13F
Encoding: 61759 61759 307
Width: 1024
VWidth: 0
Flags: H
LayerCount: 4
Back
Fore
SplineSet
256 563 m 1
 384 563 l 1
 384 -77 l 1
 256 -77 l 1
 256 307 l 1
 128 307 l 1
 128 435 l 1
 256 435 l 1
 256 563 l 1
512 563 m 1
 896 563 l 1
 896 435 l 1
 640 435 l 1
 640 307 l 1
 768 307 l 1
 768 179 l 1
 640 179 l 1
 640 -77 l 1
 512 -77 l 1
 512 563 l 1
EndSplineSet
Validated: 1
EndChar

StartChar: uniF17F
Encoding: 61823 61823 308
Width: 1024
VWidth: 0
Flags: H
LayerCount: 4
Back
Fore
SplineSet
256 691 m 1
 256 563 l 1
 384 563 l 1
 384 435 l 1
 512 435 l 1
 512 307 l 1
 384 307 l 1
 384 179 l 1
 256 179 l 1
 256 51 l 1
 512 51 l 1
 512 179 l 1
 640 179 l 1
 640 307 l 1
 768 307 l 1
 768 435 l 1
 640 435 l 1
 640 563 l 1
 512 563 l 1
 512 691 l 1
 256 691 l 1
0 819 m 1
 1024 819 l 1
 1024 -77 l 1
 0 -77 l 1
 0 819 l 1
EndSplineSet
Validated: 1
EndChar
